<?xml version="1.0" encoding="utf-8"?>
<!-- Generator: Adobe Illustrator 19.1.0, SVG Export Plug-In . SVG Version: 6.00 Build 0)  -->
<svg version="1.1" id="Layer_1" xmlns="http://www.w3.org/2000/svg" xmlns:xlink="http://www.w3.org/1999/xlink" x="0px" y="0px"
	 viewBox="0 0 256 230.9" style="enable-background:new 0 0 256 230.9;" xml:space="preserve">
<g>
	<path style="fill:#559DC5;" d="M255.6,84.8l-20.9-0.3l-102.5-65l-7.7-0.1L17.7,81.6L0.5,76.4c0,0,91.4-51.8,124.7-72.5
		c2.2-1.3,3.8-1.9,6.3-0.3C172.1,30.2,255.6,84.8,255.6,84.8z"/>
	<path style="fill:#559DC5;" d="M223.9,85.7c-31.2-19.6-62.5-39-93.7-58.6c-2.3-1.4-3.8-1.2-5.9,0.1c-31,19.4-101.4,58-101.4,58
		l-0.1,142.8l63.4,0.1c0,0-0.3-70.5-0.4-84.4c0-2.6,0.5-5.2,2.7-6.7c12.1-8.5,24.1-17.5,36-26.1c2.2-1.6,3.6-1.7,5.8-0.2
		c11.8,8.6,23.7,17,35.7,25.3c2.3,1.6,3.1,2.7,3.1,5.5c-0.1,16.3,0.2,85.9,0.2,85.9h57.1l0.2-137.5
		C226.7,89.9,225.3,86.6,223.9,85.7z M139,69.4h-11v28h-7v-28h-10v-6h10v-12h7v12h11V69.4z"/>
</g>
</svg>
