<?xml version="1.0" encoding="utf-8"?>
<!-- Generator: Adobe Illustrator 19.1.0, SVG Export Plug-In . SVG Version: 6.00 Build 0)  -->
<svg version="1.1" id="Layer_1" xmlns="http://www.w3.org/2000/svg" xmlns:xlink="http://www.w3.org/1999/xlink" x="0px" y="0px"
	 viewBox="0 0 256 256" style="enable-background:new 0 0 256 256;" xml:space="preserve">
<path style="fill:#559DC5;" d="M250.8,252.5c0,0-1.2-58-13.5-63.9c-12.3-5.9-37.8-15.6-44.4-17.9c-28-10-7.9-15.8-38.9-24.7v-6.5
	c0,0,17.7-8,22.5-36.7c0,0,9.9,4.1,9.4-8.9c-0.4-11.6,4.4-26.7-8.2-20.2c1.5-6.1,6.9-26.6,2.7-51.6c0,0-16.5-21.2-51.5-21.2
	S77.2,22.1,77.2,22.1c-4.1,25,1,45.5,2.5,51.6c-12.6-6.5-8.2,8.6-8.7,20.2c-0.5,13,4.9,8.9,4.9,8.9c4.8,28.7,17,36.7,17,36.7v6.5
	c-21,8.9-5.4,14.7-33.5,24.7c-6.6,2.4-28.5,12-40.8,17.9c-12.3,5.9-12.6,63.9-12.6,63.9l122.3,2.5L250.8,252.5z"/>
</svg>
