<svg xmlns="http://www.w3.org/2000/svg" xmlns:xlink="http://www.w3.org/1999/xlink" viewBox="0 0 1280 590">
  <defs>
    <path id="a" d="M0 0h1280v590H0z"/>
  </defs>
  <clipPath id="b">
    <use xlink:href="#a" overflow="visible"/>
  </clipPath>
  <g opacity=".1" clip-path="url(#b)" fill="none" stroke="#4C5563" stroke-width="2" stroke-linecap="round" stroke-miterlimit="10" stroke-dasharray="12">
    <path d="M348.5 1267.2C-159.6 1267.2-573 843-573 321.7s413.4-945.5 921.5-945.5S1270-199.7 1270 321.7s-413.4 945.5-921.5 945.5z"/>
    <path d="M348.5 1186.9c-465 0-843.2-388.1-843.2-865.2s378.3-865.2 843.2-865.2 843.2 388.1 843.2 865.2-378.2 865.2-843.2 865.2z"/>
    <path d="M348.5 1106.6c-421.8 0-764.9-352.1-764.9-784.9s343.1-784.9 764.9-784.9 764.9 352.1 764.9 784.9-343.1 784.9-764.9 784.9z"/>
    <path d="M348.5 1026.2c-378.6 0-686.6-316-686.6-704.6s308-704.5 686.6-704.5 686.6 316 686.6 704.5-308 704.6-686.6 704.6z"/>
    <path d="M348.5 945.9c-335.5 0-608.4-280-608.4-624.2S13-302.5 348.5-302.5s608.4 280 608.4 624.2S684 945.9 348.5 945.9z"/>
    <path d="M348.5 865.6c-292.3 0-530.1-244-530.1-543.9S56.2-222.2 348.5-222.2s530.1 244 530.1 543.9-237.8 543.9-530.1 543.9z"/>
    <path d="M348.5 785.2c-249.1 0-451.8-207.9-451.8-463.6S99.4-141.9 348.5-141.9 800.3 66 800.3 321.7 597.6 785.2 348.5 785.2z"/>
    <path d="M348.5 704.9C142.5 704.9-25 533-25 321.7S142.5-61.6 348.5-61.6 722 110.3 722 321.7 554.5 704.9 348.5 704.9z"/>
    <path d="M348.5 624.6c-162.8 0-295.2-135.8-295.2-302.9S185.7 18.8 348.5 18.8s295.2 135.8 295.2 302.9-132.4 302.9-295.2 302.9z"/>
    <path d="M348.5 544.3c-119.7 0-216.9-99.8-216.9-222.6S228.8 99.1 348.5 99.1s216.9 99.8 216.9 222.6-97.2 222.6-216.9 222.6z"/>
    <path d="M348.5 463.9c-76.5 0-138.6-63.8-138.6-142.2S272 179.4 348.5 179.4s138.6 63.8 138.6 142.2S425 463.9 348.5 463.9z"/>
    <ellipse cx="348.5" cy="321.7" rx="60.3" ry="61.9"/>
  </g>
</svg>
