<?xml version="1.0" encoding="UTF-8" standalone="no"?>
<!DOCTYPE svg  PUBLIC '-//W3C//DTD SVG 1.1//EN'  'http://www.w3.org/Graphics/SVG/1.1/DTD/svg11.dtd'>
<svg xmlns="http://www.w3.org/2000/svg">
<defs>
<font id="SweetSansPro-Medium" horiz-adv-x="757">
<font-face underline-position="-72" font-weight="500" descent="-200" panose-1="2 0 0 0 0 0 0 0 0 0" units-per-em="1000" unicode-range="U+0020-FB04" bbox="-118 -307 1443 905" x-height="483" underline-thickness="56" font-family="SweetSansPro" ascent="800" cap-height="653"/>
<missing-glyph horiz-adv-x="1000"/>
<glyph glyph-name="f_f" horiz-adv-x="705" unicode="ff" d="M566 571v-88h127v-81h-127v-402h-103v402h-234v-402h-103v402h-89v81h89v88q0 72 42 106t98 34q66 0 106 -23l-19 -86q-9 7 -30.5 12.5t-36.5 5.5q-26 0 -41.5 -13t-15.5 -36v-88h234v88q0 72 42 106t98 34q66 0 106 -23l-19 -86q-9 7 -30.5 12.5t-36.5 5.5 q-26 0 -41.5 -13t-15.5 -36z"/>
<glyph glyph-name="f_i" horiz-adv-x="645" unicode="fi" d="M443 640q0 25 18.5 42.5t46.5 17.5q27 0 46.5 -18t19.5 -42q0 -25 -19 -42t-47 -17t-46.5 17t-18.5 42zM560 0h-103v483h103v-483zM37 483h89v88q0 72 42 106t98 34q66 0 106 -23l-19 -86q-9 7 -30.5 12.5t-36.5 5.5q-26 0 -41.5 -13t-15.5 -36v-88h127v-81h-127v-402 h-103v402h-89v81z"/>
<glyph glyph-name="f_l" horiz-adv-x="656" unicode="fl" d="M565 0h-103v700h103v-700zM37 483h89v88q0 72 42 106t98 34q66 0 106 -23l-19 -86q-9 7 -30.5 12.5t-36.5 5.5q-26 0 -41.5 -13t-15.5 -36v-88h127v-81h-127v-402h-103v402h-89v81z"/>
<glyph glyph-name="f_f_i" horiz-adv-x="982" unicode="ffi" d="M845 581q-28 0 -46.5 17t-18.5 42t18.5 42.5t46.5 17.5q27 0 46.5 -18t19.5 -42q0 -25 -19 -42t-47 -17zM794 0v483h103v-483h-103zM463 0v402h-234v-402h-103v402h-89v81h89v88q0 72 42 106t98 34q66 0 106 -23l-19 -86q-9 7 -30.5 12.5t-36.5 5.5q-26 0 -41.5 -13 t-15.5 -36v-88h234v88q0 72 42 106t98 34q66 0 106 -23l-19 -86q-9 7 -30.5 12.5t-36.5 5.5q-26 0 -41.5 -13t-15.5 -36v-88h127v-81h-127v-402h-103z"/>
<glyph glyph-name="f_f_l" horiz-adv-x="993" unicode="ffl" d="M799 0v700h103v-700h-103zM463 0v402h-234v-402h-103v402h-89v81h89v88q0 72 42 106t98 34q66 0 106 -23l-19 -86q-9 7 -30.5 12.5t-36.5 5.5q-26 0 -41.5 -13t-15.5 -36v-88h234v88q0 72 42 106t98 34q66 0 106 -23l-19 -86q-9 7 -30.5 12.5t-36.5 5.5q-26 0 -41.5 -13 t-15.5 -36v-88h127v-81h-127v-402h-103z"/>
<glyph glyph-name=".notdef" horiz-adv-x="1000"/>
<glyph glyph-name=".null" horiz-adv-x="1000"/>
<glyph glyph-name=".null" horiz-adv-x="1000"/>
<glyph glyph-name="nonmarkingreturn" horiz-adv-x="333"/>
<glyph glyph-name="space" horiz-adv-x="225" unicode=" "/>
<glyph glyph-name="exclam" horiz-adv-x="311" unicode="!" d="M191 210h-72l-25 285v158h122v-158zM76 57q0 30 23 51.5t56 21.5q34 0 57 -21.5t23 -51.5t-23 -51t-57 -21t-56.5 21t-22.5 51z"/>
<glyph glyph-name="quotedbl" horiz-adv-x="502" unicode='&quot;' d="M414 378h-62l-25 164v111h112v-111zM150 378h-62l-25 164v111h112v-111z"/>
<glyph glyph-name="numbersign" horiz-adv-x="892" unicode="#" d="M376 361l-32 -173h169l32 173h-169zM592 617h83l-33 -177h198v-79h-212l-32 -173h186v-80h-201l-37 -204h-83l37 204h-169l-37 -204h-83l37 204h-195v80h210l32 173h-185v79h199l33 177h83l-33 -177h169z"/>
<glyph glyph-name="dollar" horiz-adv-x="718" unicode="$" d="M187 421q0 -56 134 -67v141q-134 -2 -134 -74zM552 158q0 44 -38.5 63.5t-117.5 26.5v-175q70 1 113 22t43 63zM321 679h75v-96q137 -16 238 -84l-64 -74q-59 51 -174 66v-141q49 -3 88 -10t81.5 -25t66.5 -54t24 -88q0 -96 -72 -143t-188 -49v-120h-75v124 q-153 17 -273 115l64 72q96 -77 209 -94v176q-42 4 -72.5 9t-64 16t-54.5 27t-35 43t-14 62q0 48 21 83.5t57.5 54.5t76.5 28t85 10v92z"/>
<glyph glyph-name="percent" horiz-adv-x="1050" unicode="%" d="M703 160q0 -37 29 -63.5t70 -26.5q42 0 72 26.5t30 63.5t-30 63t-72 26q-41 0 -70 -26t-29 -63zM607 160q0 71 57 122.5t138 51.5t139.5 -51.5t58.5 -122.5q0 -72 -58.5 -123.5t-139.5 -51.5t-138 51t-57 124zM148 446q0 -37 29 -63.5t70 -26.5q42 0 72 26.5t30 63.5 t-30 63t-72 26q-41 0 -70 -26t-29 -63zM750 605l-359 -605h-89l360 605h88zM52 446q0 72 57 123t138 51t139.5 -51.5t58.5 -122.5q0 -72 -58.5 -123.5t-139.5 -51.5t-138 51.5t-57 123.5z"/>
<glyph glyph-name="ampersand" horiz-adv-x="777" unicode="&amp;" d="M336 261l-40 39q-21 -8 -36 -16.5t-31.5 -22t-25.5 -33.5t-9 -45q0 -48 37 -73t87 -25q67 0 145 50zM573 575l-56 -88q-62 46 -129 46q-34 0 -54.5 -18t-20.5 -44q0 -14 7.5 -30.5t23.5 -36t26 -30.5t31.5 -31.5t22.5 -21.5l119 -119q56 56 109 143l90 -46 q-65 -97 -132 -164l137 -135h-147l-69 67q-112 -82 -223 -82q-91 0 -158.5 49.5t-67.5 142.5q0 136 152 195q-33 48 -33 96q0 74 55.5 119.5t133.5 45.5q86 0 183 -58z"/>
<glyph glyph-name="quotesingle" horiz-adv-x="238" unicode="&apos;" d="M150 378h-62l-25 164v111h112v-111z"/>
<glyph glyph-name="parenleft" horiz-adv-x="396" unicode="(" d="M313 696l56 -68q-96 -52 -154 -150t-58 -214q0 -117 57.5 -213.5t154.5 -149.5l-56 -68q-127 65 -197.5 178t-70.5 253t70.5 253.5t197.5 178.5z"/>
<glyph glyph-name="parenright" horiz-adv-x="396" unicode=")" d="M27 628l56 68q127 -65 197.5 -178.5t70.5 -253.5t-70.5 -253t-197.5 -178l-56 68q97 53 154.5 149.5t57.5 213.5q0 116 -58 214t-154 150z"/>
<glyph glyph-name="asterisk" horiz-adv-x="579" unicode="*" d="M181 248l-62 47l95 143l-162 60l25 75l165 -46l8 173h80l9 -172l163 45l25 -74l-162 -61l95 -143l-62 -47l-109 134z"/>
<glyph glyph-name="plus" d="M90 213v92h238v199h101v-199h237v-92h-237v-199h-101v199h-238z" unicode="+"/>
<glyph glyph-name="comma" horiz-adv-x="310" unicode="," d="M68 -191l-31 66q46 12 90 44t44 70v8q-20 -5 -28 -5q-34 0 -56.5 20t-22.5 49t23 49t56 20q43 0 76 -32.5t33 -80.5q0 -146 -184 -208z"/>
<glyph glyph-name="hyphen" horiz-adv-x="391" unicode="-" d="M67 204v102h257v-102h-257z"/>
<glyph glyph-name="period" horiz-adv-x="286" unicode="." d="M63 57q0 30 23 51.5t56 21.5q34 0 57 -21.5t23 -51.5t-23 -51t-57 -21t-56.5 21t-22.5 51z"/>
<glyph glyph-name="slash" horiz-adv-x="535" unicode="/" d="M489 653l-343 -772h-102l343 772h102z"/>
<glyph glyph-name="zero" horiz-adv-x="730" unicode="0" d="M162 284q0 -84 59 -144.5t143 -60.5q83 0 143.5 60.5t60.5 144.5t-60.5 144.5t-143.5 60.5q-84 0 -143 -60.5t-59 -144.5zM51 284q0 126 92 214.5t221 88.5t222 -88.5t93 -214.5q0 -127 -93 -215t-222 -88t-221 88t-92 215z"/>
<glyph glyph-name="one" horiz-adv-x="399" unicode="1" d="M44 405l-24 90l166 73h111v-568h-111v467z"/>
<glyph glyph-name="two" horiz-adv-x="603" unicode="2" d="M125 405l-65 78q42 34 70.5 52.5t78.5 35t106 16.5q95 0 163 -41t68 -120q0 -22 -5 -42t-16.5 -36t-21.5 -28.5t-30 -24.5t-31.5 -19t-36 -15.5t-33.5 -12t-34 -11t-29 -8.5q-67 -21 -103 -51t-36 -84v-6h363v-88h-474v84q0 176 247 243q129 33 129 96q0 33 -34.5 49.5 t-82.5 16.5q-59 0 -102 -21.5t-91 -62.5z"/>
<glyph glyph-name="three" horiz-adv-x="678" unicode="3" d="M300 254v89h89q33 0 56.5 18.5t23.5 47.5q0 41 -36.5 60.5t-83.5 19.5q-103 0 -201 -92l-68 68q130 122 271 122q54 0 103.5 -14.5t88 -52t38.5 -92.5q0 -40 -21 -71t-46 -42q42 -10 76 -43t34 -93q0 -93 -83.5 -146t-210.5 -53q-181 0 -300 120l68 78q96 -99 232 -99 q79 0 131 29t52 78q0 38 -34 53t-78 15h-101z"/>
<glyph glyph-name="four" horiz-adv-x="712" unicode="4" d="M200 216v-3h250v211h-9zM672 213v-88h-110v-125h-112v125h-418v77l433 366h97v-355h110z"/>
<glyph glyph-name="five" horiz-adv-x="659" unicode="5" d="M544 568v-99h-350v-146q36 19 53 27t52 16.5t73 8.5q98 0 170 -49t72 -137q0 -55 -25 -97t-68 -65.5t-93 -35t-106 -11.5q-156 0 -283 90l58 78q98 -69 226 -69q75 0 127.5 26.5t52.5 82.5q0 43 -39.5 67.5t-94.5 24.5q-101 0 -207 -54l-68 49v293h450z"/>
<glyph glyph-name="six" horiz-adv-x="680" unicode="6" d="M385 284q-104 0 -222 -70q20 -64 78 -99.5t132 -35.5q63 0 104.5 35t41.5 81q0 35 -33.5 62t-100.5 27zM601 529l-58 -78q-70 38 -167 38q-87 0 -151 -52.5t-71 -140.5q115 78 241 78q112 0 173.5 -54.5t61.5 -126.5q0 -92 -72.5 -152t-186.5 -60q-130 0 -224 78t-94 216 q0 142 95 227t231 85q118 0 222 -58z"/>
<glyph glyph-name="seven" horiz-adv-x="610" unicode="7" d="M43 469v99h521v-100l-311 -468h-146l329 469h-393z"/>
<glyph glyph-name="eight" horiz-adv-x="688" unicode="8" d="M344 348q135 0 135 72q0 38 -42 59.5t-93 21.5t-93 -21.5t-42 -59.5q0 -72 135 -72zM344 77q68 0 118 26t50 70t-52 68.5t-116 24.5t-116 -24.5t-52 -68.5t50 -70t118 -26zM344 -21q-118 0 -203.5 50t-85.5 134q0 61 39.5 99.5t96.5 48.5q-104 19 -104 119q0 75 80 117 t177 42q44 0 88.5 -10t82.5 -28.5t62 -50t24 -70.5q0 -101 -105 -119q57 -10 97 -48.5t40 -99.5q0 -84 -85.5 -134t-203.5 -50z"/>
<glyph glyph-name="nine" horiz-adv-x="678" unicode="9" d="M293 284q105 0 221 69q-20 65 -78 100.5t-131 35.5q-63 0 -105 -35t-42 -81q0 -35 34 -62t101 -27zM77 39l57 78q70 -38 167 -38q87 0 150.5 52t70.5 140q-117 -77 -239 -77q-112 0 -174 54.5t-62 126.5q0 91 73 151.5t187 60.5q130 0 223.5 -78t93.5 -216 q0 -142 -95 -227t-230 -85q-123 0 -222 58z"/>
<glyph glyph-name="colon" horiz-adv-x="323" unicode=":" d="M82 421q0 30 23 51.5t56 21.5q34 0 57 -21.5t23 -51.5t-23 -51t-57 -21t-56.5 21t-22.5 51zM82 57q0 30 23 51.5t56 21.5q34 0 57 -21.5t23 -51.5t-23 -51t-57 -21t-56.5 21t-22.5 51z"/>
<glyph glyph-name="semicolon" horiz-adv-x="336" unicode=";" d="M82 421q0 30 23 51.5t56 21.5q34 0 57 -21.5t23 -51.5t-23 -51t-57 -21t-56.5 21t-22.5 51zM86 -191l-31 66q46 12 90 44t44 70v8q-20 -5 -28 -5q-34 0 -56.5 20t-22.5 49t23 49t56 20q43 0 76 -32.5t33 -80.5q0 -146 -184 -208z"/>
<glyph glyph-name="less" d="M666 495v-105l-446 -125v-12l446 -125v-104l-576 185v100z" unicode="&lt;"/>
<glyph glyph-name="equal" d="M90 91v93h576v-93h-576zM90 335v93h576v-93h-576z" unicode="="/>
<glyph glyph-name="greater" d="M90 390v105l576 -186v-100l-576 -185v104l446 125v12z" unicode="&gt;"/>
<glyph glyph-name="question" horiz-adv-x="580" unicode="?" d="M181 57q0 30 23 51.5t56 21.5q34 0 57 -21.5t23 -51.5t-23 -51t-57 -21t-56.5 21t-22.5 51zM116 485l-70 64q56 62 115 92.5t153 30.5q93 0 151 -38t58 -121q0 -70 -50 -118q-22 -21 -72.5 -51.5t-79 -60.5t-30.5 -73h-100v7q0 48 24 87t53.5 60t69.5 47t57 42 q28 26 28 57q0 34 -32 53t-80 19q-65 0 -109 -24.5t-86 -72.5z"/>
<glyph glyph-name="at" horiz-adv-x="984" unicode="@" d="M429 153q63 0 124 64l31 96q-7 37 -32 63.5t-56 26.5q-45 0 -88.5 -46t-43.5 -118q0 -86 65 -86zM637 472h93l-85 -260q-4 -11 -4 -21q0 -49 49 -49q52 0 103.5 62t51.5 150q0 107 -85 177.5t-221 70.5q-163 0 -279 -98.5t-116 -254.5q0 -76 31 -138t82 -99t113 -57 t128 -20q64 0 136 16.5t112 37.5l26 -68q-43 -25 -123 -45.5t-156 -20.5q-79 0 -155.5 24.5t-141 71.5t-104.5 124t-40 173q0 127 68.5 228t179 153.5t239.5 52.5q173 0 280.5 -92.5t107.5 -230.5q0 -127 -83.5 -212t-176.5 -85q-45 0 -75 21.5t-30 56.5v8q-71 -85 -160 -85 q-58 0 -99 41.5t-41 120.5q0 110 76 189t158 79q45 0 77 -26.5t40 -64.5z"/>
<glyph glyph-name="A" horiz-adv-x="756" unicode="A" d="M372 519l-113 -253h231l-112 253h-6zM24 0l303 653h102l303 -653h-123l-79 176h-311l-78 -176h-117z"/>
<glyph glyph-name="B" horiz-adv-x="817" unicode="B" d="M496 553h-271v-170h271q45 0 69 24q27 27 27 65q0 33 -23 56q-25 25 -73 25zM520 293h-295v-193h295q51 0 81 30q27 27 27 66q0 34 -26 62q-33 35 -82 35zM516 0h-403v653h395q100 0 157 -57q44 -44 44 -103q0 -44 -23.5 -81.5t-59.5 -51.5q56 -13 87.5 -58.5 t31.5 -106.5q0 -82 -60 -139q-60 -56 -169 -56z"/>
<glyph glyph-name="C" horiz-adv-x="771" unicode="C" d="M659 190l75 -74q-136 -136 -322 -136q-158 0 -257.5 100t-99.5 247q0 145 99 245.5t253 100.5q87 0 168.5 -31.5t137.5 -83.5l-76 -75q-43 41 -105.5 65.5t-122.5 24.5q-105 0 -170.5 -71.5t-65.5 -175.5t67 -175t174 -71q72 0 136 30.5t109 79.5z"/>
<glyph glyph-name="D" horiz-adv-x="815" unicode="D" d="M225 100h196q57 0 86.5 11.5t63.5 39.5q67 67 67 176q0 106 -63 171q-31 29 -64 42t-90 13h-196v-453zM426 0h-313v653h313q84 0 139.5 -22t100.5 -65q89 -92 89 -239q0 -154 -96 -247q-46 -41 -98 -60.5t-135 -19.5z"/>
<glyph glyph-name="E" horiz-adv-x="714" unicode="E" d="M476 391v-100h-251v-191h442v-100h-554v653h530v-100h-418v-162h251z"/>
<glyph glyph-name="F" horiz-adv-x="661" unicode="F" d="M225 0h-112v653h525v-100h-413v-162h251v-100h-251v-291z"/>
<glyph glyph-name="G" horiz-adv-x="805" unicode="G" d="M715 555l-78 -70q-40 40 -103 64t-122 24q-104 0 -172 -72t-68 -175q0 -101 66.5 -173.5t184.5 -72.5q52 0 106 14.5t86 38.5v131h-205v100h307v-286q-62 -45 -143 -71.5t-158 -26.5q-154 0 -257.5 101t-103.5 246q0 144 103 245t253 101q79 0 158.5 -30.5t145.5 -87.5z "/>
<glyph glyph-name="H" horiz-adv-x="805" unicode="H" d="M225 0h-112v653h112v-247h355v247h112v-653h-112v306h-355v-306z"/>
<glyph glyph-name="I" horiz-adv-x="338" unicode="I" d="M225 0h-112v653h112v-653z"/>
<glyph glyph-name="J" horiz-adv-x="648" unicode="J" d="M436 653h112v-421q0 -118 -75.5 -185t-197.5 -67q-182 0 -262 167l93 49q51 -116 168 -116q72 0 117 40t45 112v421z"/>
<glyph glyph-name="K" horiz-adv-x="766" unicode="K" d="M225 653v-323l341 323h139l-267 -250l325 -403h-145l-261 328l-132 -123v-205h-112v653h112z"/>
<glyph glyph-name="L" horiz-adv-x="647" unicode="L" d="M113 653h112v-553h401v-100h-513v653z"/>
<glyph glyph-name="M" horiz-adv-x="907" unicode="M" d="M794 0h-112v444h-5l-217 -366h-18l-217 366h-5v-444h-107v653h115l227 -385h2l227 385h110v-653z"/>
<glyph glyph-name="N" horiz-adv-x="815" unicode="N" d="M590 653h112v-653h-99l-377 453h-1v-453h-112v653h99l377 -453h1v453z"/>
<glyph glyph-name="O" horiz-adv-x="846" unicode="O" d="M173 328q0 -103 72.5 -175.5t176.5 -72.5q105 0 178.5 73t73.5 175t-73.5 173.5t-178.5 71.5t-177 -71.5t-72 -173.5zM55 328q0 144 106.5 244.5t260.5 100.5t262 -101t108 -244q0 -145 -107.5 -246.5t-262.5 -101.5q-154 0 -260.5 101t-106.5 247z"/>
<glyph glyph-name="P" horiz-adv-x="750" unicode="P" d="M473 553h-248v-202h248q65 0 99 32q30 28 30 69q0 37 -27 66q-33 35 -102 35zM225 0h-112v653h360q125 0 189 -69q52 -56 52 -131q0 -83 -60 -141q-64 -61 -181 -61h-248v-251z"/>
<glyph glyph-name="Q" horiz-adv-x="846" unicode="Q" d="M374 204l108 35l81 -117q51 33 81 88t30 118q0 102 -73.5 173.5t-178.5 71.5t-177 -71.5t-72 -173.5q0 -103 72.5 -175.5t176.5 -72.5q12 0 36 2zM55 328q0 144 106.5 244.5t260.5 100.5t262 -101t108 -244q0 -92 -45.5 -169t-123.5 -124l84 -121l-108 -35l-79 114 q-50 -13 -98 -13q-154 0 -260.5 101t-106.5 247z"/>
<glyph glyph-name="R" horiz-adv-x="783" unicode="R" d="M473 553h-248v-202h268q44 0 76.5 30t32.5 72q0 36 -27 65q-34 35 -102 35zM225 0h-112v653h360q125 0 189 -69q52 -55 52 -131q0 -65 -39 -113.5t-105 -73.5l156 -266h-129l-140 251h-232v-251z"/>
<glyph glyph-name="S" horiz-adv-x="736" unicode="S" d="M643 578l-68 -78q-33 30 -94 53t-143 23q-64 0 -105.5 -23t-41.5 -71q0 -24 13.5 -39.5t44 -23.5t54.5 -11t69 -6q10 -1 15 -1q35 -2 54 -4t56 -8t58.5 -13.5t50 -23t44 -35.5t27 -50t11.5 -68q0 -112 -80.5 -165.5t-207.5 -53.5q-205 0 -357 137l68 78 q130 -118 291 -118q77 0 125.5 27t48.5 80q0 57 -46 78.5t-143 29.5q-36 2 -55.5 4t-53 6t-53 9.5t-46 14.5t-41.5 22t-30.5 30.5t-22 41t-6.5 52.5q0 55 23.5 96t63.5 63t83.5 32t92.5 10q94 0 174 -29t127 -66z"/>
<glyph glyph-name="T" horiz-adv-x="685" unicode="T" d="M30 553v100h625v-100h-256v-553h-112v553h-257z"/>
<glyph glyph-name="U" horiz-adv-x="779" unicode="U" d="M567 653h112v-421q0 -118 -81 -185t-209 -67q-127 0 -208 67t-81 185v421h112v-421q0 -71 50 -111.5t127 -40.5q78 0 128 40.5t50 111.5v421z"/>
<glyph glyph-name="V" horiz-adv-x="752" unicode="V" d="M608 653h122l-303 -653h-102l-303 653h128l226 -510h6z"/>
<glyph glyph-name="W" horiz-adv-x="1008" unicode="W" d="M37 653h123l146 -480h6l155 480h80l155 -480h6l146 480h117l-209 -653h-112l-143 437h-6l-143 -437h-112z"/>
<glyph glyph-name="X" horiz-adv-x="733" unicode="X" d="M558 653h136l-257 -312l270 -341h-143l-200 262l-208 -262h-136l277 336l-250 317h143l180 -238z"/>
<glyph glyph-name="Y" horiz-adv-x="680" unicode="Y" d="M532 653h132l-268 -352v-301h-112v301l-268 352h142l187 -252z"/>
<glyph glyph-name="Z" horiz-adv-x="677" unicode="Z" d="M616 100v-100h-565v70l402 483h-382v100h545v-70l-402 -483h402z"/>
<glyph glyph-name="bracketleft" horiz-adv-x="368" unicode="[" d="M327 -64v-90h-238v843h238v-90h-136v-663h136z"/>
<glyph glyph-name="backslash" horiz-adv-x="538" unicode="\" d="M400 -119l-343 772h102l343 -772h-102z"/>
<glyph glyph-name="bracketright" horiz-adv-x="368" unicode="]" d="M41 689h238v-843h-238v90h136v663h-136v90z"/>
<glyph glyph-name="asciicircum" d="M221 213h-116l220 400h110l217 -400h-115l-153 292h-8z" unicode="^"/>
<glyph glyph-name="underscore" horiz-adv-x="600" unicode="_" d="M-6 -172v72h612v-72h-612z"/>
<glyph glyph-name="grave" horiz-adv-x="500" unicode="`" d="M119 697h119l80 -146h-93z"/>
<glyph glyph-name="a" horiz-adv-x="605" unicode="a" d="M258 76q40 0 79.5 16t56.5 29.5t26 23.5v49q-50 36 -134 36q-136 0 -136 -74q0 -35 29 -57.5t79 -22.5zM111 352l-36 85q101 62 229 62q59 0 106 -12.5t80 -46t33 -83.5v-270q0 -56 13 -87h-104q-8 18 -12 60q-81 -70 -184 -70q-86 0 -138 46t-52 120q0 67 59.5 111 t163.5 44q101 0 151 -37v53q0 42 -33 63t-88 21q-51 0 -104 -18.5t-84 -40.5z"/>
<glyph glyph-name="b" horiz-adv-x="629" unicode="b" d="M329 408q-74 0 -139 -67v-198q11 -14 26.5 -27t47 -27t65.5 -14q56 0 94.5 46.5t38.5 121.5q0 74 -38 119.5t-95 45.5zM173 0h-95q9 46 9 133v567h103v-276q67 75 149 75q99 0 168 -71.5t69 -184.5q0 -115 -68.5 -186.5t-168.5 -71.5q-53 0 -96 26t-63 56q0 -38 -7 -67z "/>
<glyph glyph-name="c" horiz-adv-x="564" unicode="c" d="M517 420l-69 -69q-57 57 -138 57q-61 0 -103 -46t-42 -119q0 -75 43.5 -121t107.5 -46q78 0 144 66l69 -65q-25 -30 -83 -61t-140 -31q-106 0 -180 71.5t-74 186.5q0 113 74.5 184.5t183.5 71.5q122 0 207 -79z"/>
<glyph glyph-name="d" horiz-adv-x="629" unicode="d" d="M300 408q-57 0 -95 -45.5t-38 -119.5q0 -75 38.5 -121.5t94.5 -46.5q48 0 84 22t55 46v198q-65 67 -139 67zM551 0h-95q-7 29 -7 67q-20 -30 -63 -56t-96 -26q-100 0 -168.5 71.5t-68.5 186.5q0 113 69 184.5t168 71.5q82 0 149 -65v266h103v-567q0 -87 9 -133z"/>
<glyph glyph-name="e" horiz-adv-x="597" unicode="e" d="M299 413q-53 0 -88 -31.5t-49 -81.5h271q-1 54 -41 83.5t-93 29.5zM464 142l69 -67q-42 -40 -105 -65t-133 -25q-112 0 -177.5 72.5t-65.5 180.5q0 110 71 185.5t181 75.5q98 0 170.5 -63t72.5 -188q0 -19 -1 -29h-390q6 -63 44.5 -103t105.5 -40q95 0 158 66z"/>
<glyph glyph-name="f" horiz-adv-x="368" unicode="f" d="M37 483h89v88q0 72 42 106t98 34q66 0 106 -23l-19 -86q-9 7 -30.5 12.5t-36.5 5.5q-26 0 -41.5 -13t-15.5 -36v-88h127v-81h-127v-402h-103v402h-89v81z"/>
<glyph glyph-name="g" horiz-adv-x="629" unicode="g" d="M300 75q74 0 139 67v198q-11 14 -26.5 27t-47 27t-65.5 14q-56 0 -94.5 -46.5t-38.5 -121.5q0 -74 38 -119.5t95 -45.5zM439 -25v84q-66 -74 -149 -74q-99 0 -168 71t-69 184q0 115 68.5 187t168.5 72q52 0 95 -28.5t64 -59.5q0 39 7 73h95q-9 -46 -9 -133v-376 q0 -87 -63.5 -144.5t-178.5 -57.5q-141 0 -221 80l61 62q58 -56 160 -56q66 0 102.5 32.5t36.5 83.5z"/>
<glyph glyph-name="h" horiz-adv-x="604" unicode="h" d="M189 0h-103v700h103v-276q62 75 141 75q86 0 140 -48t54 -124v-327h-104v327q0 34 -28.5 57.5t-71.5 23.5q-71 0 -131 -77v-331z"/>
<glyph glyph-name="i" horiz-adv-x="275" unicode="i" d="M72 640q0 25 18.5 42.5t46.5 17.5q27 0 46.5 -18t19.5 -42q0 -25 -19 -42t-47 -17t-46.5 17t-18.5 42zM189 0h-103v483h103v-483z"/>
<glyph glyph-name="j" horiz-adv-x="275" unicode="j" d="M72 640q0 25 18.5 42.5t46.5 17.5q27 0 46.5 -18t19.5 -42q0 -25 -19 -42t-47 -17t-46.5 17t-18.5 42zM23 -227l-30 81q21 5 34 9.5t28.5 15t23 29t7.5 45.5v530h103v-530q0 -91 -50.5 -135.5t-115.5 -44.5z"/>
<glyph glyph-name="k" horiz-adv-x="572" unicode="k" d="M400 483h139l-191 -175l220 -308h-129l-167 239l-82 -75v-164h-104v700h104v-424z"/>
<glyph glyph-name="l" horiz-adv-x="285" unicode="l" d="M194 0h-103v700h103v-700z"/>
<glyph glyph-name="m" horiz-adv-x="900" unicode="m" d="M505 331v-331h-104v327q0 34 -25.5 57.5t-63.5 23.5q-65 0 -122 -77v-331h-103v351q0 71 -12 132h94q7 -29 10 -71q32 41 65.5 64t84.5 23q53 0 95.5 -26t63.5 -71q63 97 156 97q74 0 125 -49t51 -123v-327h-104v327q0 34 -25.5 57.5t-63.5 23.5q-65 0 -122 -77z"/>
<glyph glyph-name="n" horiz-adv-x="605" unicode="n" d="M179 412q33 41 69.5 64t90.5 23q79 0 132.5 -49t53.5 -123v-327h-104v327q0 34 -28 57.5t-71 23.5q-71 0 -132 -77v-331h-103v350q0 72 -12 133h94q7 -29 10 -71z"/>
<glyph glyph-name="o" horiz-adv-x="618" unicode="o" d="M159 243q0 -73 40.5 -122.5t108.5 -49.5q70 0 111 49.5t41 122.5q0 71 -41.5 120.5t-110.5 49.5q-68 0 -108.5 -49.5t-40.5 -120.5zM52 243q0 108 71.5 182t184.5 74q114 0 186 -74t72 -182q0 -110 -72 -184t-186 -74q-113 0 -184.5 74t-71.5 184z"/>
<glyph glyph-name="p" horiz-adv-x="629" unicode="p" d="M329 75q57 0 95 45.5t38 119.5q0 75 -38.5 121.5t-94.5 46.5q-48 0 -84 -22t-55 -46v-198q65 -67 139 -67zM78 483h95q7 -34 7 -67q20 30 63 56.5t96 26.5q100 0 168.5 -72t68.5 -187q0 -113 -69 -184t-168 -71q-83 0 -149 74v-266h-103v558q0 86 -9 132z"/>
<glyph glyph-name="q" horiz-adv-x="629" unicode="q" d="M300 75q74 0 139 67v198q-11 14 -26.5 27t-47 27t-65.5 14q-56 0 -94.5 -46.5t-38.5 -121.5q0 -74 38 -119.5t95 -45.5zM456 483h95q-9 -46 -9 -132v-558h-103v266q-66 -74 -149 -74q-99 0 -168 71t-69 184q0 115 68.5 187t168.5 72q53 0 96 -26.5t63 -56.5q0 33 7 67z "/>
<glyph glyph-name="r" horiz-adv-x="402" unicode="r" d="M295 398q-31 0 -54.5 -21.5t-50.5 -60.5v-316h-103v351q0 66 -13 132h95q7 -33 10 -81q30 46 61.5 71.5t78.5 25.5q48 0 68 -20l-31 -96q-23 15 -61 15z"/>
<glyph glyph-name="s" horiz-adv-x="557" unicode="s" d="M480 445l-39 -79q-31 17 -81.5 33t-97.5 16q-42 0 -70 -14t-28 -42q0 -51 118 -56q29 -1 47 -3t49.5 -7t51.5 -15t40.5 -26t31 -41.5t10.5 -59.5q0 -83 -62.5 -125.5t-163.5 -42.5q-129 0 -240 74l39 78q110 -66 200 -66q55 0 89.5 19t34.5 53q0 19 -11.5 32.5 t-33.5 19.5t-39 8.5t-43 3.5q-40 2 -63 4.5t-57.5 11.5t-53 23t-33 40t-14.5 63q0 81 58.5 117.5t140.5 36.5q62 0 123.5 -18t96.5 -38z"/>
<glyph glyph-name="t" horiz-adv-x="394" unicode="t" d="M27 402v81h90v143h103v-143h127v-81h-127v-282q0 -49 57 -49q46 0 70 8l10 -81q-28 -18 -100 -18q-56 0 -98 34t-42 106v282h-90z"/>
<glyph glyph-name="u" horiz-adv-x="604" unicode="u" d="M424 71q-33 -41 -69 -63.5t-90 -22.5q-79 0 -132.5 48.5t-53.5 122.5v327h104v-327q0 -34 28 -57.5t71 -23.5q71 0 132 77v331h103v-350q0 -87 9 -133h-95q-7 29 -7 71z"/>
<glyph glyph-name="v" horiz-adv-x="557" unicode="v" d="M426 483h106l-211 -483h-86l-210 483h117l136 -340h6z"/>
<glyph glyph-name="w" horiz-adv-x="784" unicode="w" d="M346 483h98l100 -346h6l93 346h111l-160 -483h-104l-95 331h-6l-95 -331h-104l-160 483h112l98 -346h6z"/>
<glyph glyph-name="x" horiz-adv-x="574" unicode="x" d="M410 483h131l-191 -235l202 -248h-130l-135 182l-134 -182h-131l202 248l-191 235h132l122 -170z"/>
<glyph glyph-name="y" horiz-adv-x="564" unicode="y" d="M279 148h6l150 335h105l-329 -690h-107l122 241l-202 449h117z"/>
<glyph glyph-name="z" horiz-adv-x="529" unicode="z" d="M474 81v-81h-428v61l284 341h-264v81h408v-61l-284 -341h284z"/>
<glyph glyph-name="braceleft" horiz-adv-x="388" unicode="{" d="M347 -64v-90q-128 0 -170.5 31t-42.5 131v127q0 97 -108 97v88q44 0 76.5 28.5t32.5 73.5v103q1 101 44 133t168 32v-90q-65 0 -87 -14t-23 -61v-103q0 -60 -32.5 -99.5t-76.5 -42.5v-8q108 -2 108 -137v-127q0 -45 22.5 -58.5t88.5 -13.5z"/>
<glyph glyph-name="bar" horiz-adv-x="350" unicode="|" d="M129 -307v1212h95v-1212h-95z"/>
<glyph glyph-name="braceright" horiz-adv-x="388" unicode="}" d="M41 -154v90q63 0 87 14t24 58v127q0 135 108 137v8q-44 3 -76.5 42.5t-32.5 99.5v103q-1 46 -24 60.5t-86 14.5v90q125 0 168 -32t44 -133v-103q0 -45 32.5 -73.5t76.5 -28.5v-88q-108 0 -108 -97v-127q0 -100 -42.5 -131t-170.5 -31z"/>
<glyph glyph-name="asciitilde" d="M126 190l-76 49q56 63 102.5 94t96.5 31q82 0 158 -69q53 -45 92 -45q54 0 129 78l79 -49q-113 -129 -212 -129q-12 0 -24 1.5t-22 3.5t-20.5 6.5t-18 7.5t-17.5 9t-15 9.5t-13.5 10.5t-11.5 9t-11 9t-9 8q-49 40 -88 40q-47 0 -119 -74z" unicode="~"/>
<glyph glyph-name="nbspace" horiz-adv-x="225" unicode=" "/>
<glyph glyph-name="exclamdown" horiz-adv-x="302" unicode="¡" d="M95 270h72l25 -285v-158h-122v158zM210 423q0 -30 -23 -51.5t-56 -21.5q-34 0 -57 21.5t-23 51.5t23 51t57 21t56.5 -21t22.5 -51z"/>
<glyph glyph-name="cent" horiz-adv-x="607" unicode="¢" d="M164 227q0 -47 23 -83t62 -54l63 286q-63 0 -105.5 -41t-42.5 -108zM351 553h75l-22 -96q79 -19 139 -64l-68 -68q-40 28 -91 42l-65 -292q83 0 157 61l69 -65q-14 -16 -38.5 -33t-77 -35t-111.5 -18q-13 0 -19 1l-27 -125h-74l30 137q-78 23 -127.5 84t-49.5 145 q0 106 75.5 173t185.5 67q13 0 20 -1z"/>
<glyph glyph-name="sterling" horiz-adv-x="721" unicode="£" d="M60 263v80h129v73q0 83 68.5 127t162.5 44q48 0 114.5 -21t123.5 -54l-55 -77q-104 53 -183 53q-48 0 -84 -18.5t-36 -53.5v-73h245v-80h-245v-71q0 -48 -20 -71.5t-67 -31.5h445v-89h-598v89h39q52 0 71 20.5t19 82.5v71h-129z"/>
<glyph glyph-name="currency" horiz-adv-x="746" unicode="¤" d="M210 258q0 -69 47.5 -118.5t114.5 -49.5q68 0 116.5 49.5t48.5 118.5t-48.5 118.5t-116.5 49.5q-67 0 -114.5 -49.5t-47.5 -118.5zM98 258q0 79 44 145l-81 76l72 72l80 -75q72 51 159 51q88 0 161 -51l81 75l72 -72l-82 -76q45 -67 45 -145t-45 -146l82 -75l-72 -72 l-81 75q-73 -51 -161 -51q-86 0 -159 50l-80 -74l-72 72l81 75q-44 66 -44 146z"/>
<glyph glyph-name="yen" horiz-adv-x="788" unicode="¥" d="M64 318v70h169l-147 180h142l171 -210l170 210h132l-146 -180h170v-70h-227l-48 -59v-6h275v-70h-275v-183h-112v183h-274v70h274v6l-48 59h-226z"/>
<glyph glyph-name="brokenbar" horiz-adv-x="350" unicode="¦" d="M129 -228v420h95v-420h-95zM129 385v412h95v-412h-95z"/>
<glyph glyph-name="section" horiz-adv-x="719" unicode="§" d="M393 297q-115 10 -160 28l-20 -16q-38 -35 -38 -79q0 -34 24 -56q39 -36 141 -45q115 -10 160 -28q13 8 21 16q38 35 38 79q0 33 -25 56q-39 36 -141 45zM621 97q-24 -23 -60 -40q5 -5 12 -19q12 -22 12 -54q0 -51 -35.5 -86t-83 -48t-101.5 -13q-120 0 -209 49l48 76 q70 -36 161 -36q24 0 46 3.5t42.5 17t20.5 34.5q0 16 -10 25q-6 6 -15 10t-24.5 6.5t-24 3.5t-31.5 3t-29 3q-166 16 -233 81q-44 42 -44 103q0 65 50 113q20 20 58 39q-6 8 -11 17q-12 27 -12 57q0 51 35.5 86t83 48t102.5 13q118 0 208 -48l-48 -77q-70 36 -160 36 q-110 0 -110 -55q0 -15 10 -24q5 -4 11 -7.5t15 -6t16 -4t19.5 -3t20 -2.5t22.5 -2t21 -2q165 -15 232 -80q44 -42 44 -104q0 -66 -49 -113z"/>
<glyph glyph-name="dieresis" horiz-adv-x="500" unicode="¨" d="M294 617q0 24 17.5 40.5t43.5 16.5t44 -17t18 -40q0 -24 -18 -40t-44 -16t-43.5 16t-17.5 40zM82 617q0 24 17.5 40.5t43.5 16.5t44 -17t18 -40q0 -24 -18 -40t-44 -16t-43.5 16t-17.5 40z"/>
<glyph glyph-name="copyright" horiz-adv-x="993" unicode="©" d="M498 611q-148 0 -255.5 -101.5t-107.5 -241.5q0 -141 107 -241.5t256 -100.5t254.5 100t105.5 242q0 141 -105.5 242t-254.5 101zM498 682q183 0 313 -121t130 -293t-130 -292.5t-313 -120.5q-184 0 -315 120.5t-131 292.5t131 293t315 121zM694 414l-38 -69 q-67 61 -160 61q-62 0 -101 -39.5t-39 -97.5q0 -55 41 -89t102 -34q53 0 88 14t74 42l38 -69q-43 -34 -87 -51t-113 -17q-100 0 -168 57t-68 147q0 93 64.5 155.5t168.5 62.5q107 0 198 -73z"/>
<glyph glyph-name="ordfeminine" horiz-adv-x="464" unicode="ª" d="M201 285q67 0 111 44v26q-43 19 -89 19q-95 0 -95 -42q0 -21 19.5 -34t53.5 -13zM88 463l-31 71q75 44 177 44q71 0 118.5 -24t47.5 -77v-195q0 -38 9 -62h-89q-3 8 -8 38q-19 -15 -32.5 -23.5t-40 -17t-57.5 -8.5q-64 0 -103.5 34.5t-39.5 88.5q0 48 45 79t124 31 q63 0 104 -19v28q0 54 -83 54q-38 0 -78.5 -13.5t-62.5 -28.5z"/>
<glyph glyph-name="guillemotleft" horiz-adv-x="606" unicode="«" d="M297 242v8l117 145h124l-121 -145v-8l121 -144h-124zM151 395h124l-121 -145v-8l121 -144h-124l-99 122v52z"/>
<glyph glyph-name="logicalnot" d="M666 113h-102v203h-474v93h576v-296z" unicode="¬"/>
<glyph glyph-name="registered" horiz-adv-x="626" unicode="®" d="M353 519h-98v-57h97q14 0 26 9t12 19q0 13 -10.5 21t-26.5 8zM255 328h-54v235h152q39 0 65 -20.5t26 -52.5q0 -45 -53 -67l59 -95h-62l-53 89h-80v-89zM311 245q90 0 152 56.5t62 137.5q0 80 -62.5 137.5t-151.5 57.5q-88 0 -149 -57.5t-61 -137.5q0 -81 61 -137.5 t149 -56.5zM311 204q-107 0 -180.5 68t-73.5 167q0 95 74 164.5t180 69.5q107 0 182.5 -69.5t75.5 -164.5q0 -99 -75 -167t-183 -68z"/>
<glyph glyph-name="macron" horiz-adv-x="500" unicode="¯" d="M119 657h261v-80h-261v80z"/>
<glyph glyph-name="degree" horiz-adv-x="488" unicode="°" d="M244 379q48 0 75 24.5t27 62.5q0 39 -27 64t-75 25t-75 -25t-27 -64q0 -38 27 -62.5t75 -24.5zM244 635q92 0 143 -48.5t51 -120.5q0 -71 -51.5 -119t-142.5 -48t-142.5 48t-51.5 119q0 72 51 120.5t143 48.5z"/>
<glyph glyph-name="plusminus" d="M90 0v93h576v-93h-576zM90 316v93h238v164h101v-164h237v-93h-237v-164h-101v164h-238z" unicode="±"/>
<glyph glyph-name="two.superior" horiz-adv-x="477" unicode="²" d="M102 519l-58 68q37 27 58.5 41t62 27.5t85.5 13.5q77 0 131.5 -31.5t54.5 -93.5q0 -17 -4 -32.5t-13.5 -28.5t-17 -22.5t-24 -19t-25 -15t-29 -12.5t-27 -9t-27.5 -8.5t-23 -6.5q-50 -15 -76.5 -35t-26.5 -56v-1h282v-78h-379v70q0 137 197 186q95 22 95 66q0 40 -85 40 q-79 0 -151 -63z"/>
<glyph glyph-name="three.superior" horiz-adv-x="534" unicode="³" d="M236 408v78h87q20 0 31.5 12t11.5 31q0 27 -26.5 40t-61.5 13q-84 0 -158 -68l-59 59q104 96 219 96q69 0 126.5 -31t57.5 -92q0 -30 -13 -53.5t-28 -31.5q28 -7 51 -32.5t23 -70.5q0 -72 -66 -113t-168 -41q-147 0 -241 93l59 68q76 -74 181 -74q60 0 99 19t39 54 q0 44 -76 44h-88z"/>
<glyph glyph-name="acute" horiz-adv-x="500" unicode="´" d="M262 697h119l-106 -146h-93z"/>
<glyph glyph-name="mu" horiz-adv-x="605" unicode="µ" d="M181 -230h-104v703h104v-326q0 -32 28.5 -54.5t70.5 -22.5q71 0 132 77v326h103v-340q0 -87 9 -133h-95q-7 29 -7 66q-33 -41 -69 -63.5t-90 -22.5q-50 0 -82 24v-234z"/>
<glyph glyph-name="mu" horiz-adv-x="605" unicode="μ" d="M181 -230h-104v703h104v-326q0 -32 28.5 -54.5t70.5 -22.5q71 0 132 77v326h103v-340q0 -87 9 -133h-95q-7 29 -7 66q-33 -41 -69 -63.5t-90 -22.5q-50 0 -82 24v-234z"/>
<glyph glyph-name="paragraph" horiz-adv-x="861" unicode="¶" d="M149 460q0 -56 38 -84t87 -28h202v215h-209q-118 0 -118 -103zM568 -206h-92v464h-202q-57 0 -106 19t-85 66.5t-36 116.5q0 193 220 193h497v-859h-92v769h-104v-769z"/>
<glyph glyph-name="periodcentered" d="M289 259q0 33 25.5 57t63.5 24q37 0 63 -24t26 -57q0 -34 -25.5 -57t-63.5 -23t-63.5 23t-25.5 57z" unicode="·"/>
<glyph glyph-name="cedilla" horiz-adv-x="500" unicode="¸" d="M242 19h66l-33 -73q17 5 30 5h3q40 0 70 -21.5t30 -58.5q0 -44 -45.5 -70.5t-118.5 -26.5q-53 0 -143 22l16 57q87 -17 122 -17q76 0 76 36q0 27 -47 27q-13 0 -43 -5l-27 32z"/>
<glyph glyph-name="one.superior" horiz-adv-x="323" unicode="¹" d="M31 520l-21 78l129 55h98v-433h-98v345z"/>
<glyph glyph-name="ordmasculine" horiz-adv-x="464" unicode="º" d="M131 394q0 -48 26 -78.5t74 -30.5q49 0 76 30.5t27 78.5q0 47 -27 77.5t-76 30.5q-48 0 -74 -30.5t-26 -77.5zM39 394q0 76 57 130t135 54q80 0 137 -54t57 -130q0 -77 -57 -131t-137 -54q-79 0 -135.5 54t-56.5 131z"/>
<glyph glyph-name="guillemotright" horiz-adv-x="606" unicode="»" d="M309 250v-8l-117 -144h-124l121 144v8l-121 145h124zM331 395h124l99 -123v-52l-99 -122h-124l121 144v8z"/>
<glyph glyph-name="onequarter" horiz-adv-x="1068" unicode="¼" d="M671 172v-2h183v137h-8q-28 -23 -87 -68t-88 -67zM1037 170v-79h-85v-91h-98v91h-329v66l344 276h83v-263h85zM573 653h88l-370 -653h-89zM29 520l-21 78l129 55h98v-433h-98v345z"/>
<glyph glyph-name="onehalf" horiz-adv-x="1016" unicode="½" d="M641 299l-58 68q37 27 58.5 41t62 27.5t85.5 13.5q77 0 131.5 -31.5t54.5 -93.5q0 -17 -4 -32.5t-13.5 -28.5t-17 -22.5t-24 -19t-25 -15t-29 -12.5t-27 -9t-27.5 -8.5t-23 -6.5q-50 -15 -76.5 -35t-26.5 -56v-1h282v-78h-379v70q0 137 197 186q95 22 95 66q0 40 -85 40 q-79 0 -151 -63zM573 653h88l-370 -653h-89zM29 520l-21 78l129 55h98v-433h-98v345z"/>
<glyph glyph-name="threequarters" horiz-adv-x="1283" unicode="¾" d="M886 172v-2h183v137h-8q-28 -23 -87.5 -68t-87.5 -67zM1252 170v-79h-85v-91h-98v91h-329v66l344 276h83v-263h85zM788 653h88l-370 -653h-89zM236 408v78h87q20 0 31.5 12t11.5 31q0 27 -26.5 40t-61.5 13q-84 0 -158 -68l-59 59q104 96 219 96q69 0 126.5 -31t57.5 -92 q0 -30 -13 -53.5t-28 -31.5q28 -7 51 -32.5t23 -70.5q0 -72 -66 -113t-168 -41q-147 0 -241 93l59 68q76 -74 181 -74q60 0 99 19t39 54q0 44 -76 44h-88z"/>
<glyph glyph-name="questiondown" horiz-adv-x="571" unicode="¿" d="M381 423q0 -30 -23 -51.5t-56 -21.5q-34 0 -57 21.5t-23 51.5t23 51t57 21t56.5 -21t22.5 -51zM446 -5l70 -64q-56 -62 -115 -92.5t-153 -30.5q-93 0 -151 38t-58 121q0 70 50 118q22 21 72.5 51.5t79 60.5t30.5 73h100v-7q0 -48 -24 -87t-53.5 -60t-69.5 -47t-57 -42 q-28 -26 -28 -57q0 -34 32 -53t80 -19q65 0 109 24.5t86 72.5z"/>
<glyph glyph-name="Agrave" horiz-adv-x="756" unicode="À" d="M361 730l-136 130h136l100 -130h-100zM372 519l-113 -253h231l-112 253h-6zM24 0l303 653h102l303 -653h-123l-79 176h-311l-78 -176h-117z"/>
<glyph glyph-name="Aacute" horiz-adv-x="756" unicode="Á" d="M295 730l100 130h136l-137 -130h-99zM372 519l-113 -253h231l-112 253h-6zM24 0l303 653h102l303 -653h-123l-79 176h-311l-78 -176h-117z"/>
<glyph glyph-name="Acircumflex" horiz-adv-x="756" unicode="Â" d="M217 730l103 133h116l102 -133h-83l-77 74l-78 -74h-83zM372 519l-113 -253h231l-112 253h-6zM24 0l303 653h102l303 -653h-123l-79 176h-311l-78 -176h-117z"/>
<glyph glyph-name="Atilde" horiz-adv-x="756" unicode="Ã" d="M264 729l-67 36q51 88 114 88q34 0 71 -26q38 -26 55 -26q11 0 22 8t17 15t17 22l62 -34q-50 -89 -114 -89q-37 0 -70 24q-39 28 -54 28q-5 0 -9.5 -1.5t-9 -4.5t-7.5 -5.5t-7.5 -8t-6.5 -8t-6.5 -9.5t-6.5 -9zM372 519l-113 -253h231l-112 253h-6zM24 0l303 653h102 l303 -653h-123l-79 176h-311l-78 -176h-117z"/>
<glyph glyph-name="Adieresis" horiz-adv-x="756" unicode="Ä" d="M422 795q0 24 17.5 40.5t43.5 16.5t44 -17t18 -40q0 -24 -18 -40t-44 -16t-43.5 16t-17.5 40zM210 795q0 24 17.5 40.5t43.5 16.5t44 -17t18 -40q0 -24 -18 -40t-44 -16t-43.5 16t-17.5 40zM372 519l-113 -253h231l-112 253h-6zM24 0l303 653h102l303 -653h-123l-79 176 h-311l-78 -176h-117z"/>
<glyph glyph-name="Aring" horiz-adv-x="756" unicode="Å" d="M375 694q-59 0 -92.5 29.5t-33.5 72.5q0 44 33.5 74.5t92.5 30.5t93.5 -30.5t34.5 -74.5q0 -43 -34.5 -72.5t-93.5 -29.5zM311 796q0 -24 18 -39t46 -15q29 0 47 15t18 39q0 25 -18.5 42t-46.5 17t-46 -17t-18 -42zM372 519l-113 -253h231l-112 253h-6zM24 0l303 653h102 l303 -653h-123l-79 176h-311l-78 -176h-117z"/>
<glyph glyph-name="AE" horiz-adv-x="1086" unicode="Æ" d="M482 519l-179 -253h183v253h-4zM486 0v176h-246l-124 -176h-125l474 653h550v-100h-418v-162h251v-100h-251v-191h442v-100h-553z"/>
<glyph glyph-name="Ccedilla" horiz-adv-x="771" unicode="Ç" d="M659 190l75 -74q-132 -132 -314 -136l-15 -34q17 5 30 5h3q40 0 70 -21.5t30 -58.5q0 -44 -45.5 -70.5t-118.5 -26.5q-53 0 -143 22l16 57q87 -17 122 -17q76 0 76 36q0 27 -47 27q-13 0 -43 -5l-27 32l27 58q-135 18 -217.5 114t-82.5 229q0 145 99 245.5t253 100.5 q87 0 168.5 -31.5t137.5 -83.5l-76 -75q-43 41 -105.5 65.5t-122.5 24.5q-105 0 -170.5 -71.5t-65.5 -175.5t67 -175t174 -71q72 0 136 30.5t109 79.5z"/>
<glyph glyph-name="Egrave" horiz-adv-x="714" unicode="È" d="M362 730l-136 130h136l100 -130h-100zM476 391v-100h-251v-191h442v-100h-554v653h530v-100h-418v-162h251z"/>
<glyph glyph-name="Eacute" horiz-adv-x="714" unicode="É" d="M296 730l100 130h136l-137 -130h-99zM476 391v-100h-251v-191h442v-100h-554v653h530v-100h-418v-162h251z"/>
<glyph glyph-name="Ecircumflex" horiz-adv-x="714" unicode="Ê" d="M218 730l103 133h116l102 -133h-83l-77 74l-78 -74h-83zM476 391v-100h-251v-191h442v-100h-554v653h530v-100h-418v-162h251z"/>
<glyph glyph-name="Edieresis" horiz-adv-x="714" unicode="Ë" d="M423 795q0 24 17.5 40.5t43.5 16.5t44 -17t18 -40q0 -24 -18 -40t-44 -16t-43.5 16t-17.5 40zM211 795q0 24 17.5 40.5t43.5 16.5t44 -17t18 -40q0 -24 -18 -40t-44 -16t-43.5 16t-17.5 40zM476 391v-100h-251v-191h442v-100h-554v653h530v-100h-418v-162h251z"/>
<glyph glyph-name="Igrave" horiz-adv-x="338" unicode="Ì" d="M152 860l100 -130h-100l-136 130h136zM225 0h-112v653h112v-653z"/>
<glyph glyph-name="Iacute" horiz-adv-x="338" unicode="Í" d="M86 730l100 130h136l-137 -130h-99zM225 0h-112v653h112v-653z"/>
<glyph glyph-name="Icircumflex" horiz-adv-x="338" unicode="Î" d="M8 730l103 133h116l102 -133h-83l-77 74l-78 -74h-83zM225 0h-112v653h112v-653z"/>
<glyph glyph-name="Idieresis" horiz-adv-x="338" unicode="Ï" d="M213 795q0 24 17.5 40.5t43.5 16.5t44 -17t18 -40q0 -24 -18 -40t-44 -16t-43.5 16t-17.5 40zM1 795q0 24 17.5 40.5t43.5 16.5t44 -17t18 -40q0 -24 -18 -40t-44 -16t-43.5 16t-17.5 40zM225 0h-112v653h112v-653z"/>
<glyph glyph-name="Eth" horiz-adv-x="845" unicode="Ð" d="M255 100h196q57 0 86.5 11.5t63.5 39.5q67 67 67 176q0 106 -63 171q-31 29 -64 42t-90 13h-196v-172h192v-90h-192v-191zM43 291v90h100v272h313q84 0 139.5 -22t100.5 -65q89 -92 89 -239q0 -154 -96 -247q-46 -41 -98 -60.5t-135 -19.5h-313v291h-100z"/>
<glyph glyph-name="Ntilde" horiz-adv-x="815" unicode="Ñ" d="M293 729l-67 36q51 88 114 88q34 0 71 -26q38 -26 55 -26q11 0 22 8t17 15t17 22l62 -34q-50 -89 -114 -89q-37 0 -70 24q-39 28 -54 28q-5 0 -9.5 -1.5t-9 -4.5t-7.5 -5.5t-7.5 -8t-6.5 -8t-6.5 -9.5t-6.5 -9zM590 653h112v-653h-99l-377 453h-1v-453h-112v653h99 l377 -453h1v453z"/>
<glyph glyph-name="Ograve" horiz-adv-x="846" unicode="Ò" d="M406 730l-136 130h136l100 -130h-100zM173 328q0 -103 72.5 -175.5t176.5 -72.5q105 0 178.5 73t73.5 175t-73.5 173.5t-178.5 71.5t-177 -71.5t-72 -173.5zM55 328q0 144 106.5 244.5t260.5 100.5t262 -101t108 -244q0 -145 -107.5 -246.5t-262.5 -101.5 q-154 0 -260.5 101t-106.5 247z"/>
<glyph glyph-name="Oacute" horiz-adv-x="846" unicode="Ó" d="M340 730l100 130h136l-137 -130h-99zM173 328q0 -103 72.5 -175.5t176.5 -72.5q105 0 178.5 73t73.5 175t-73.5 173.5t-178.5 71.5t-177 -71.5t-72 -173.5zM55 328q0 144 106.5 244.5t260.5 100.5t262 -101t108 -244q0 -145 -107.5 -246.5t-262.5 -101.5 q-154 0 -260.5 101t-106.5 247z"/>
<glyph glyph-name="Ocircumflex" horiz-adv-x="846" unicode="Ô" d="M262 730l103 133h116l102 -133h-83l-77 74l-78 -74h-83zM173 328q0 -103 72.5 -175.5t176.5 -72.5q105 0 178.5 73t73.5 175t-73.5 173.5t-178.5 71.5t-177 -71.5t-72 -173.5zM55 328q0 144 106.5 244.5t260.5 100.5t262 -101t108 -244q0 -145 -107.5 -246.5 t-262.5 -101.5q-154 0 -260.5 101t-106.5 247z"/>
<glyph glyph-name="Otilde" horiz-adv-x="846" unicode="Õ" d="M309 729l-67 36q51 88 114 88q34 0 71 -26q38 -26 55 -26q11 0 22 8t17 15t17 22l62 -34q-50 -89 -114 -89q-37 0 -70 24q-39 28 -54 28q-5 0 -9.5 -1.5t-9 -4.5t-7.5 -5.5t-7.5 -8t-6.5 -8t-6.5 -9.5t-6.5 -9zM173 328q0 -103 72.5 -175.5t176.5 -72.5q105 0 178.5 73 t73.5 175t-73.5 173.5t-178.5 71.5t-177 -71.5t-72 -173.5zM55 328q0 144 106.5 244.5t260.5 100.5t262 -101t108 -244q0 -145 -107.5 -246.5t-262.5 -101.5q-154 0 -260.5 101t-106.5 247z"/>
<glyph glyph-name="Odieresis" horiz-adv-x="846" unicode="Ö" d="M467 795q0 24 17.5 40.5t43.5 16.5t44 -17t18 -40q0 -24 -18 -40t-44 -16t-43.5 16t-17.5 40zM255 795q0 24 17.5 40.5t43.5 16.5t44 -17t18 -40q0 -24 -18 -40t-44 -16t-43.5 16t-17.5 40zM173 328q0 -103 72.5 -175.5t176.5 -72.5q105 0 178.5 73t73.5 175t-73.5 173.5 t-178.5 71.5t-177 -71.5t-72 -173.5zM55 328q0 144 106.5 244.5t260.5 100.5t262 -101t108 -244q0 -145 -107.5 -246.5t-262.5 -101.5q-154 0 -260.5 101t-106.5 247z"/>
<glyph glyph-name="multiply" d="M97 435l71 67l211 -181l211 181l68 -66l-207 -177l208 -177l-70 -66l-212 180l-211 -180l-68 65l207 177z" unicode="×"/>
<glyph glyph-name="Oslash" horiz-adv-x="846" unicode="Ø" d="M173 328q0 -103 73 -176l278 400q-50 21 -102 21q-105 0 -177 -71.5t-72 -173.5zM674 328q0 104 -75 174l-279 -401q46 -21 102 -21q105 0 178.5 73t73.5 175zM55 328q0 144 106.5 244.5t260.5 100.5q84 0 162 -35l60 86l74 -51l-57 -82q61 -48 96 -116.5t35 -146.5 q0 -145 -107.5 -246.5t-262.5 -101.5q-83 0 -162 34l-58 -84l-75 50l56 81q-60 49 -94 118t-34 149z"/>
<glyph glyph-name="Ugrave" horiz-adv-x="779" unicode="Ù" d="M372 730l-136 130h136l100 -130h-100zM567 653h112v-421q0 -118 -81 -185t-209 -67q-127 0 -208 67t-81 185v421h112v-421q0 -71 50 -111.5t127 -40.5q78 0 128 40.5t50 111.5v421z"/>
<glyph glyph-name="Uacute" horiz-adv-x="779" unicode="Ú" d="M306 730l100 130h136l-137 -130h-99zM567 653h112v-421q0 -118 -81 -185t-209 -67q-127 0 -208 67t-81 185v421h112v-421q0 -71 50 -111.5t127 -40.5q78 0 128 40.5t50 111.5v421z"/>
<glyph glyph-name="Ucircumflex" horiz-adv-x="779" unicode="Û" d="M228 730l103 133h116l102 -133h-83l-77 74l-78 -74h-83zM567 653h112v-421q0 -118 -81 -185t-209 -67q-127 0 -208 67t-81 185v421h112v-421q0 -71 50 -111.5t127 -40.5q78 0 128 40.5t50 111.5v421z"/>
<glyph glyph-name="Udieresis" horiz-adv-x="779" unicode="Ü" d="M433 795q0 24 17.5 40.5t43.5 16.5t44 -17t18 -40q0 -24 -18 -40t-44 -16t-43.5 16t-17.5 40zM221 795q0 24 17.5 40.5t43.5 16.5t44 -17t18 -40q0 -24 -18 -40t-44 -16t-43.5 16t-17.5 40zM567 653h112v-421q0 -118 -81 -185t-209 -67q-127 0 -208 67t-81 185v421h112 v-421q0 -71 50 -111.5t127 -40.5q78 0 128 40.5t50 111.5v421z"/>
<glyph glyph-name="Yacute" horiz-adv-x="680" unicode="Ý" d="M257 730l100 130h136l-137 -130h-99zM532 653h132l-268 -352v-301h-112v301l-268 352h142l187 -252z"/>
<glyph glyph-name="Thorn" horiz-adv-x="771" unicode="Þ" d="M493 428h-268v-202h268q65 0 99 32q30 28 30 69q0 37 -27 66q-33 35 -102 35zM225 653v-125h268q125 0 189 -69q52 -56 52 -131q0 -83 -60 -141q-64 -61 -181 -61h-268v-126h-112v653h112z"/>
<glyph glyph-name="germandbls" horiz-adv-x="591" unicode="ß" d="M309 -10l-10 80q66 0 102 30t36 80q0 47 -33.5 86t-70 56.5t-67.5 22.5l10 79q46 9 71 42t25 73t-25 63.5t-61 23.5q-40 0 -69 -28.5t-29 -81.5v-516h-102v516q0 99 58 147.5t141 48.5q85 0 139.5 -48t54.5 -116q0 -58 -38 -98.5t-80 -55.5q63 -16 123 -74.5t60 -142.5 q0 -82 -62.5 -134.5t-172.5 -52.5z"/>
<glyph glyph-name="agrave" horiz-adv-x="605" unicode="à" d="M171 697h119l80 -146h-93zM258 76q40 0 79.5 16t56.5 29.5t26 23.5v49q-50 36 -134 36q-136 0 -136 -74q0 -35 29 -57.5t79 -22.5zM111 352l-36 85q101 62 229 62q59 0 106 -12.5t80 -46t33 -83.5v-270q0 -56 13 -87h-104q-8 18 -12 60q-81 -70 -184 -70q-86 0 -138 46 t-52 120q0 67 59.5 111t163.5 44q101 0 151 -37v53q0 42 -33 63t-88 21q-51 0 -104 -18.5t-84 -40.5z"/>
<glyph glyph-name="aacute" horiz-adv-x="605" unicode="á" d="M314 697h119l-106 -146h-93zM258 76q40 0 79.5 16t56.5 29.5t26 23.5v49q-50 36 -134 36q-136 0 -136 -74q0 -35 29 -57.5t79 -22.5zM111 352l-36 85q101 62 229 62q59 0 106 -12.5t80 -46t33 -83.5v-270q0 -56 13 -87h-104q-8 18 -12 60q-81 -70 -184 -70q-86 0 -138 46 t-52 120q0 67 59.5 111t163.5 44q101 0 151 -37v53q0 42 -33 63t-88 21q-51 0 -104 -18.5t-84 -40.5z"/>
<glyph glyph-name="acircumflex" horiz-adv-x="605" unicode="â" d="M141 552l103 136h116l102 -136h-83l-77 78l-78 -78h-83zM258 76q40 0 79.5 16t56.5 29.5t26 23.5v49q-50 36 -134 36q-136 0 -136 -74q0 -35 29 -57.5t79 -22.5zM111 352l-36 85q101 62 229 62q59 0 106 -12.5t80 -46t33 -83.5v-270q0 -56 13 -87h-104q-8 18 -12 60 q-81 -70 -184 -70q-86 0 -138 46t-52 120q0 67 59.5 111t163.5 44q101 0 151 -37v53q0 42 -33 63t-88 21q-51 0 -104 -18.5t-84 -40.5z"/>
<glyph glyph-name="atilde" horiz-adv-x="605" unicode="ã" d="M188 551l-67 36q51 88 114 88q34 0 71 -26q38 -26 55 -26q11 0 22 8t17 15t17 22l62 -34q-50 -89 -114 -89q-37 0 -70 24q-39 28 -54 28q-5 0 -9.5 -1.5t-9 -4.5t-7.5 -5.5t-7.5 -8t-6.5 -8t-6.5 -9.5t-6.5 -9zM258 76q40 0 79.5 16t56.5 29.5t26 23.5v49q-50 36 -134 36 q-136 0 -136 -74q0 -35 29 -57.5t79 -22.5zM111 352l-36 85q101 62 229 62q59 0 106 -12.5t80 -46t33 -83.5v-270q0 -56 13 -87h-104q-8 18 -12 60q-81 -70 -184 -70q-86 0 -138 46t-52 120q0 67 59.5 111t163.5 44q101 0 151 -37v53q0 42 -33 63t-88 21q-51 0 -104 -18.5 t-84 -40.5z"/>
<glyph glyph-name="adieresis" horiz-adv-x="605" unicode="ä" d="M346 617q0 24 17.5 40.5t43.5 16.5t44 -17t18 -40q0 -24 -18 -40t-44 -16t-43.5 16t-17.5 40zM134 617q0 24 17.5 40.5t43.5 16.5t44 -17t18 -40q0 -24 -18 -40t-44 -16t-43.5 16t-17.5 40zM258 76q40 0 79.5 16t56.5 29.5t26 23.5v49q-50 36 -134 36q-136 0 -136 -74 q0 -35 29 -57.5t79 -22.5zM111 352l-36 85q101 62 229 62q59 0 106 -12.5t80 -46t33 -83.5v-270q0 -56 13 -87h-104q-8 18 -12 60q-81 -70 -184 -70q-86 0 -138 46t-52 120q0 67 59.5 111t163.5 44q101 0 151 -37v53q0 42 -33 63t-88 21q-51 0 -104 -18.5t-84 -40.5z"/>
<glyph glyph-name="aring" horiz-adv-x="605" unicode="å" d="M173 644q0 44 33.5 74.5t92.5 30.5t93.5 -30.5t34.5 -74.5q0 -43 -34.5 -72t-93.5 -29t-92.5 29t-33.5 72zM235 644q0 -24 18 -39t46 -15q29 0 47 15t18 39q0 26 -18.5 43t-46.5 17t-46 -17t-18 -43zM258 76q40 0 79.5 16t56.5 29.5t26 23.5v49q-50 36 -134 36 q-136 0 -136 -74q0 -35 29 -57.5t79 -22.5zM111 352l-36 85q101 62 229 62q59 0 106 -12.5t80 -46t33 -83.5v-270q0 -56 13 -87h-104q-8 18 -12 60q-81 -70 -184 -70q-86 0 -138 46t-52 120q0 67 59.5 111t163.5 44q101 0 151 -37v53q0 42 -33 63t-88 21q-51 0 -104 -18.5 t-84 -40.5z"/>
<glyph glyph-name="ae" horiz-adv-x="965" unicode="æ" d="M526 300h275q-1 54 -40.5 83.5t-93.5 29.5q-109 0 -141 -113zM667 -15q-129 0 -200 98q-90 -98 -231 -98q-85 0 -137.5 48.5t-52.5 122.5q0 67 59.5 111t163.5 44q106 0 156 -37v53q0 42 -35 63t-91 21q-51 0 -104 -18.5t-84 -40.5l-36 85q101 62 229 62q160 0 188 -87 l1 -3q25 40 74 65t100 25q103 0 175.5 -62.5t72.5 -188.5q0 -19 -1 -29h-391q1 -17 8 -39q15 -46 51 -75t85 -29q101 0 165 66l69 -67q-92 -90 -234 -90zM258 76q39 0 73.5 12.5t54 27t45.5 38.5q-7 25 -10 39q-59 37 -135 37q-136 0 -136 -74q0 -35 29 -57.5t79 -22.5z"/>
<glyph glyph-name="ccedilla" horiz-adv-x="564" unicode="ç" d="M517 420l-69 -69q-57 57 -138 57q-61 0 -103 -46t-42 -119q0 -75 43.5 -121t107.5 -46q78 0 144 66l69 -65q-23 -28 -76.5 -57.5t-128.5 -33.5l-18 -40q17 5 30 5h3q40 0 70 -21.5t30 -58.5q0 -44 -45.5 -70.5t-118.5 -26.5q-53 0 -143 22l16 57q87 -17 122 -17 q76 0 76 36q0 27 -47 27q-13 0 -43 -5l-27 32l30 63q-90 15 -148.5 84t-58.5 170q0 113 74.5 184.5t183.5 71.5q122 0 207 -79z"/>
<glyph glyph-name="egrave" horiz-adv-x="597" unicode="è" d="M172 697h119l80 -146h-93zM299 413q-53 0 -88 -31.5t-49 -81.5h271q-1 54 -41 83.5t-93 29.5zM464 142l69 -67q-42 -40 -105 -65t-133 -25q-112 0 -177.5 72.5t-65.5 180.5q0 110 71 185.5t181 75.5q98 0 170.5 -63t72.5 -188q0 -19 -1 -29h-390q6 -63 44.5 -103 t105.5 -40q95 0 158 66z"/>
<glyph glyph-name="eacute" horiz-adv-x="597" unicode="é" d="M315 697h119l-106 -146h-93zM299 413q-53 0 -88 -31.5t-49 -81.5h271q-1 54 -41 83.5t-93 29.5zM464 142l69 -67q-42 -40 -105 -65t-133 -25q-112 0 -177.5 72.5t-65.5 180.5q0 110 71 185.5t181 75.5q98 0 170.5 -63t72.5 -188q0 -19 -1 -29h-390q6 -63 44.5 -103 t105.5 -40q95 0 158 66z"/>
<glyph glyph-name="ecircumflex" horiz-adv-x="597" unicode="ê" d="M142 552l103 136h116l102 -136h-83l-77 78l-78 -78h-83zM299 413q-53 0 -88 -31.5t-49 -81.5h271q-1 54 -41 83.5t-93 29.5zM464 142l69 -67q-42 -40 -105 -65t-133 -25q-112 0 -177.5 72.5t-65.5 180.5q0 110 71 185.5t181 75.5q98 0 170.5 -63t72.5 -188q0 -19 -1 -29 h-390q6 -63 44.5 -103t105.5 -40q95 0 158 66z"/>
<glyph glyph-name="edieresis" horiz-adv-x="597" unicode="ë" d="M347 617q0 24 17.5 40.5t43.5 16.5t44 -17t18 -40q0 -24 -18 -40t-44 -16t-43.5 16t-17.5 40zM135 617q0 24 17.5 40.5t43.5 16.5t44 -17t18 -40q0 -24 -18 -40t-44 -16t-43.5 16t-17.5 40zM299 413q-53 0 -88 -31.5t-49 -81.5h271q-1 54 -41 83.5t-93 29.5zM464 142 l69 -67q-42 -40 -105 -65t-133 -25q-112 0 -177.5 72.5t-65.5 180.5q0 110 71 185.5t181 75.5q98 0 170.5 -63t72.5 -188q0 -19 -1 -29h-390q6 -63 44.5 -103t105.5 -40q95 0 158 66z"/>
<glyph glyph-name="igrave" horiz-adv-x="275" unicode="ì" d="M7 697h119l80 -146h-93zM189 0h-103v483h103v-483z"/>
<glyph glyph-name="iacute" horiz-adv-x="275" unicode="í" d="M150 697h119l-106 -146h-93zM189 0h-103v483h103v-483z"/>
<glyph glyph-name="icircumflex" horiz-adv-x="275" unicode="î" d="M-23 552l103 136h116l102 -136h-83l-77 78l-78 -78h-83zM189 0h-103v483h103v-483z"/>
<glyph glyph-name="idieresis" horiz-adv-x="275" unicode="ï" d="M182 617q0 24 17.5 40.5t43.5 16.5t44 -17t18 -40q0 -24 -18 -40t-44 -16t-43.5 16t-17.5 40zM-30 617q0 24 17.5 40.5t43.5 16.5t44 -17t18 -40q0 -24 -18 -40t-44 -16t-43.5 16t-17.5 40zM189 0h-103v483h103v-483z"/>
<glyph glyph-name="eth" horiz-adv-x="626" unicode="ð" d="M161 233q0 -67 39 -112t101 -45q65 0 106 43q45 47 45 114q0 66 -42.5 110.5t-109.5 44.5q-62 0 -100.5 -44.5t-38.5 -110.5zM174 512l-24 69l120 42q-43 35 -94 67l116 20q63 -46 72 -53l127 45l24 -69l-90 -32q133 -135 133 -340q0 -130 -73 -205q-71 -71 -182 -71 q-104 0 -177 72t-73 174q0 105 66 176.5t160 71.5q91 0 154 -67q-25 76 -102 156z"/>
<glyph glyph-name="ntilde" horiz-adv-x="605" unicode="ñ" d="M188 551l-67 36q51 88 114 88q34 0 71 -26q38 -26 55 -26q11 0 22 8t17 15t17 22l62 -34q-50 -89 -114 -89q-37 0 -70 24q-39 28 -54 28q-5 0 -9.5 -1.5t-9 -4.5t-7.5 -5.5t-7.5 -8t-6.5 -8t-6.5 -9.5t-6.5 -9zM179 412q33 41 69.5 64t90.5 23q79 0 132.5 -49t53.5 -123 v-327h-104v327q0 34 -28 57.5t-71 23.5q-71 0 -132 -77v-331h-103v350q0 72 -12 133h94q7 -29 10 -71z"/>
<glyph glyph-name="ograve" horiz-adv-x="618" unicode="ò" d="M178 697h119l80 -146h-93zM159 243q0 -73 40.5 -122.5t108.5 -49.5q70 0 111 49.5t41 122.5q0 71 -41.5 120.5t-110.5 49.5q-68 0 -108.5 -49.5t-40.5 -120.5zM52 243q0 108 71.5 182t184.5 74q114 0 186 -74t72 -182q0 -110 -72 -184t-186 -74q-113 0 -184.5 74 t-71.5 184z"/>
<glyph glyph-name="oacute" horiz-adv-x="618" unicode="ó" d="M321 697h119l-106 -146h-93zM159 243q0 -73 40.5 -122.5t108.5 -49.5q70 0 111 49.5t41 122.5q0 71 -41.5 120.5t-110.5 49.5q-68 0 -108.5 -49.5t-40.5 -120.5zM52 243q0 108 71.5 182t184.5 74q114 0 186 -74t72 -182q0 -110 -72 -184t-186 -74q-113 0 -184.5 74 t-71.5 184z"/>
<glyph glyph-name="ocircumflex" horiz-adv-x="618" unicode="ô" d="M148 552l103 136h116l102 -136h-83l-77 78l-78 -78h-83zM159 243q0 -73 40.5 -122.5t108.5 -49.5q70 0 111 49.5t41 122.5q0 71 -41.5 120.5t-110.5 49.5q-68 0 -108.5 -49.5t-40.5 -120.5zM52 243q0 108 71.5 182t184.5 74q114 0 186 -74t72 -182q0 -110 -72 -184 t-186 -74q-113 0 -184.5 74t-71.5 184z"/>
<glyph glyph-name="otilde" horiz-adv-x="618" unicode="õ" d="M195 551l-67 36q51 88 114 88q34 0 71 -26q38 -26 55 -26q11 0 22 8t17 15t17 22l62 -34q-50 -89 -114 -89q-37 0 -70 24q-39 28 -54 28q-5 0 -9.5 -1.5t-9 -4.5t-7.5 -5.5t-7.5 -8t-6.5 -8t-6.5 -9.5t-6.5 -9zM159 243q0 -73 40.5 -122.5t108.5 -49.5q70 0 111 49.5 t41 122.5q0 71 -41.5 120.5t-110.5 49.5q-68 0 -108.5 -49.5t-40.5 -120.5zM52 243q0 108 71.5 182t184.5 74q114 0 186 -74t72 -182q0 -110 -72 -184t-186 -74q-113 0 -184.5 74t-71.5 184z"/>
<glyph glyph-name="odieresis" horiz-adv-x="618" unicode="ö" d="M353 617q0 24 17.5 40.5t43.5 16.5t44 -17t18 -40q0 -24 -18 -40t-44 -16t-43.5 16t-17.5 40zM141 617q0 24 17.5 40.5t43.5 16.5t44 -17t18 -40q0 -24 -18 -40t-44 -16t-43.5 16t-17.5 40zM159 243q0 -73 40.5 -122.5t108.5 -49.5q70 0 111 49.5t41 122.5 q0 71 -41.5 120.5t-110.5 49.5q-68 0 -108.5 -49.5t-40.5 -120.5zM52 243q0 108 71.5 182t184.5 74q114 0 186 -74t72 -182q0 -110 -72 -184t-186 -74q-113 0 -184.5 74t-71.5 184z"/>
<glyph glyph-name="divide" d="M305 454q0 29 21.5 48.5t52.5 19.5t52.5 -19.5t21.5 -48.5q0 -28 -21.5 -47.5t-52.5 -19.5t-52.5 19.5t-21.5 47.5zM305 63q0 28 21.5 48t52.5 20t52.5 -20t21.5 -48q0 -29 -21.5 -48t-52.5 -19t-52.5 19t-21.5 48zM90 213v92h576v-92h-576z" unicode="÷"/>
<glyph glyph-name="oslash" horiz-adv-x="618" unicode="ø" d="M159 243q0 -63 31 -110l185 264q-30 16 -67 16q-68 0 -108.5 -49.5t-40.5 -120.5zM460 243q0 61 -32 107l-186 -264q28 -15 66 -15q70 0 111 49.5t41 122.5zM52 243q0 108 71.5 182t184.5 74q64 0 120 -27l50 72l58 -40l-50 -72q80 -74 80 -189q0 -110 -72 -184t-186 -74 q-63 0 -118 26l-50 -71l-58 40l50 71q-80 74 -80 192z"/>
<glyph glyph-name="ugrave" horiz-adv-x="604" unicode="ù" d="M171 697h119l80 -146h-93zM424 71q-33 -41 -69 -63.5t-90 -22.5q-79 0 -132.5 48.5t-53.5 122.5v327h104v-327q0 -34 28 -57.5t71 -23.5q71 0 132 77v331h103v-350q0 -87 9 -133h-95q-7 29 -7 71z"/>
<glyph glyph-name="uacute" horiz-adv-x="604" unicode="ú" d="M314 697h119l-106 -146h-93zM424 71q-33 -41 -69 -63.5t-90 -22.5q-79 0 -132.5 48.5t-53.5 122.5v327h104v-327q0 -34 28 -57.5t71 -23.5q71 0 132 77v331h103v-350q0 -87 9 -133h-95q-7 29 -7 71z"/>
<glyph glyph-name="ucircumflex" horiz-adv-x="604" unicode="û" d="M141 552l103 136h116l102 -136h-83l-77 78l-78 -78h-83zM424 71q-33 -41 -69 -63.5t-90 -22.5q-79 0 -132.5 48.5t-53.5 122.5v327h104v-327q0 -34 28 -57.5t71 -23.5q71 0 132 77v331h103v-350q0 -87 9 -133h-95q-7 29 -7 71z"/>
<glyph glyph-name="udieresis" horiz-adv-x="604" unicode="ü" d="M346 617q0 24 17.5 40.5t43.5 16.5t44 -17t18 -40q0 -24 -18 -40t-44 -16t-43.5 16t-17.5 40zM134 617q0 24 17.5 40.5t43.5 16.5t44 -17t18 -40q0 -24 -18 -40t-44 -16t-43.5 16t-17.5 40zM424 71q-33 -41 -69 -63.5t-90 -22.5q-79 0 -132.5 48.5t-53.5 122.5v327h104 v-327q0 -34 28 -57.5t71 -23.5q71 0 132 77v331h103v-350q0 -87 9 -133h-95q-7 29 -7 71z"/>
<glyph glyph-name="yacute" horiz-adv-x="564" unicode="ý" d="M293 697h119l-106 -146h-93zM279 148h6l150 335h105l-329 -690h-107l122 241l-202 449h117z"/>
<glyph glyph-name="thorn" horiz-adv-x="628" unicode="þ" d="M189 700v-274q55 73 149 73q100 0 168.5 -72t68.5 -187q0 -113 -69 -184t-168 -71q-83 0 -149 74v-266h-103v907h103zM328 75q57 0 95 45.5t38 119.5q0 75 -38.5 121.5t-94.5 46.5q-48 0 -84 -22t-55 -46v-198q65 -67 139 -67z"/>
<glyph glyph-name="OE" horiz-adv-x="1275" unicode="Œ" d="M173 328q0 -103 69.5 -175.5t169.5 -72.5q110 0 186 72.5t76 175.5q0 102 -76 173.5t-186 71.5q-100 0 -169.5 -71.5t-69.5 -173.5zM1037 391v-100h-251v-191h442v-100h-554v94q-86 -114 -262 -114q-150 0 -253.5 101t-103.5 247q0 144 103.5 244.5t253.5 100.5 q179 0 262 -115v95h530v-100h-418v-162h251z"/>
<glyph glyph-name="oe" horiz-adv-x="1005" unicode="œ" d="M158 243q0 -73 40.5 -122.5t108.5 -49.5q70 0 111 49.5t41 122.5q0 71 -41.5 120.5t-110.5 49.5q-68 0 -108.5 -49.5t-40.5 -120.5zM707 413q-52 0 -87 -30.5t-49 -82.5h270q-1 54 -40.5 83.5t-93.5 29.5zM872 142l69 -67q-92 -90 -234 -90q-65 0 -119 29.5t-80 77.5 q-29 -48 -84.5 -77.5t-116.5 -29.5q-105 0 -180.5 75t-75.5 183q0 106 75.5 181t180.5 75q62 0 118.5 -30.5t85.5 -80.5q27 51 80.5 81t115.5 30q103 0 175.5 -62.5t72.5 -188.5q0 -19 -1 -29h-391q2 -21 7 -37q14 -46 50.5 -76t86.5 -30q101 0 165 66z"/>
<glyph glyph-name="Scaron" horiz-adv-x="736" unicode="Š" d="M290 863l78 -74l77 74h83l-102 -133h-116l-103 133h83zM643 578l-68 -78q-33 30 -94 53t-143 23q-64 0 -105.5 -23t-41.5 -71q0 -24 13.5 -39.5t44 -23.5t54.5 -11t69 -6q10 -1 15 -1q35 -2 54 -4t56 -8t58.5 -13.5t50 -23t44 -35.5t27 -50t11.5 -68q0 -112 -80.5 -165.5 t-207.5 -53.5q-205 0 -357 137l68 78q130 -118 291 -118q77 0 125.5 27t48.5 80q0 57 -46 78.5t-143 29.5q-36 2 -55.5 4t-53 6t-53 9.5t-46 14.5t-41.5 22t-30.5 30.5t-22 41t-6.5 52.5q0 55 23.5 96t63.5 63t83.5 32t92.5 10q94 0 174 -29t127 -66z"/>
<glyph glyph-name="scaron" horiz-adv-x="557" unicode="š" d="M117 689h83l78 -78l77 78h83l-102 -137h-116zM480 445l-39 -79q-31 17 -81.5 33t-97.5 16q-42 0 -70 -14t-28 -42q0 -51 118 -56q29 -1 47 -3t49.5 -7t51.5 -15t40.5 -26t31 -41.5t10.5 -59.5q0 -83 -62.5 -125.5t-163.5 -42.5q-129 0 -240 74l39 78q110 -66 200 -66 q55 0 89.5 19t34.5 53q0 19 -11.5 32.5t-33.5 19.5t-39 8.5t-43 3.5q-40 2 -63 4.5t-57.5 11.5t-53 23t-33 40t-14.5 63q0 81 58.5 117.5t140.5 36.5q62 0 123.5 -18t96.5 -38z"/>
<glyph glyph-name="Ydieresis" horiz-adv-x="680" unicode="Ÿ" d="M384 795q0 24 17.5 40.5t43.5 16.5t44 -17t18 -40q0 -24 -18 -40t-44 -16t-43.5 16t-17.5 40zM172 795q0 24 17.5 40.5t43.5 16.5t44 -17t18 -40q0 -24 -18 -40t-44 -16t-43.5 16t-17.5 40zM532 653h132l-268 -352v-301h-112v301l-268 352h142l187 -252z"/>
<glyph glyph-name="circumflex" horiz-adv-x="500" unicode="ˆ" d="M89 552l103 136h116l102 -136h-83l-77 78l-78 -78h-83z"/>
<glyph glyph-name="tilde" horiz-adv-x="500" unicode="˜" d="M136 551l-67 36q51 88 114 88q34 0 71 -26q38 -26 55 -26q11 0 22 8t17 15t17 22l62 -34q-50 -89 -114 -89q-37 0 -70 24q-39 28 -54 28q-5 0 -9.5 -1.5t-9 -4.5t-7.5 -5.5t-7.5 -8t-6.5 -8t-6.5 -9.5t-6.5 -9z"/>
<glyph glyph-name="pi" horiz-adv-x="674" unicode="π" d="M36 392v81h600v-81h-106l-32 -311q-2 -14 -2 -44q0 -24 1 -37h-102q-1 13 -1 36q0 30 2 45l32 311h-174l-41 -392h-102l41 392h-116z"/>
<glyph glyph-name="endash" horiz-adv-x="630" unicode="–" d="M68 214v92h494v-92h-494z"/>
<glyph glyph-name="emdash" horiz-adv-x="1110" unicode="—" d="M68 214v92h974v-92h-974z"/>
<glyph glyph-name="quoteleft" horiz-adv-x="300" unicode="‘" d="M227 683l30 -63q-44 -11 -86 -41.5t-42 -66.5v-8q20 5 27 5q32 0 53.5 -18.5t21.5 -46.5t-21.5 -47t-53.5 -19q-41 0 -72.5 31t-31.5 76q0 138 175 198z"/>
<glyph glyph-name="quotesinglbase" horiz-adv-x="302" unicode="‚" d="M68 -175l-30 63q44 11 86 41.5t42 66.5v8q-20 -5 -27 -5q-32 0 -53.5 18.5t-21.5 46.5t21.5 47t53.5 19q41 0 72.5 -31t31.5 -76q0 -138 -175 -198z"/>
<glyph glyph-name="quotedblleft" horiz-adv-x="573" unicode="“" d="M500 683l30 -63q-44 -11 -86 -41.5t-42 -66.5v-8q20 5 27 5q32 0 53.5 -18.5t21.5 -46.5t-21.5 -47t-53.5 -19q-41 0 -72.5 31t-31.5 76q0 138 175 198zM227 683l30 -63q-44 -11 -86 -41.5t-42 -66.5v-8q20 5 27 5q32 0 53.5 -18.5t21.5 -46.5t-21.5 -47t-53.5 -19 q-41 0 -72.5 31t-31.5 76q0 138 175 198z"/>
<glyph glyph-name="quotedblright" horiz-adv-x="573" unicode="”" d="M80 368l-30 63q44 11 86 41.5t42 66.5v8q-20 -5 -27 -5q-32 0 -53.5 18.5t-21.5 46.5t21.5 47t53.5 19q41 0 72.5 -31t31.5 -76q0 -138 -175 -198zM353 368l-30 63q44 11 86 41.5t42 66.5v8q-20 -5 -27 -5q-32 0 -53.5 18.5t-21.5 46.5t21.5 47t53.5 19q41 0 72.5 -31 t31.5 -76q0 -138 -175 -198z"/>
<glyph glyph-name="dagger" horiz-adv-x="501" unicode="†" d="M204 700h92v-164h154v-82h-154v-374h-92v374h-153v82h153v164z"/>
<glyph glyph-name="daggerdbl" horiz-adv-x="517" unicode="‡" d="M304 250v-170h-92v170h-153v82h153v122h-153v82h153v164h92v-164h154v-82h-154v-122h154v-82h-154z"/>
<glyph glyph-name="ellipsis" horiz-adv-x="1000" unicode="…" d="M741 57q0 30 23 51.5t56 21.5q34 0 57 -21.5t23 -51.5t-23 -51t-57 -21t-56.5 21t-22.5 51zM420 57q0 30 23 51.5t56 21.5q34 0 57 -21.5t23 -51.5t-23 -51t-57 -21t-56.5 21t-22.5 51zM99 57q0 30 23 51.5t56 21.5q34 0 57 -21.5t23 -51.5t-23 -51t-57 -21t-56.5 21 t-22.5 51z"/>
<glyph glyph-name="perthousand" horiz-adv-x="1492" unicode="‰" d="M1146 160q0 -37 29 -63.5t70 -26.5q42 0 72.5 26.5t30.5 63.5t-30.5 63t-72.5 26q-41 0 -70 -26t-29 -63zM1050 160q0 71 57 122.5t138 51.5t139.5 -51.5t58.5 -122.5q0 -72 -58.5 -123.5t-139.5 -51.5t-138 51t-57 124zM705 160q0 -37 29 -63.5t70 -26.5q42 0 72 26.5 t30 63.5t-30 63t-72 26q-41 0 -70 -26t-29 -63zM609 160q0 71 57 122.5t138 51.5t139.5 -51.5t58.5 -122.5q0 -72 -58.5 -123.5t-139.5 -51.5t-138 51t-57 124zM150 446q0 -37 29 -63.5t70 -26.5q42 0 72 26.5t30 63.5t-30 63t-72 26q-41 0 -70 -26t-29 -63zM752 605 l-359 -605h-89l360 605h88zM54 446q0 72 57 123t138 51t139.5 -51.5t58.5 -122.5q0 -72 -58.5 -123.5t-139.5 -51.5t-138 51.5t-57 123.5z"/>
<glyph glyph-name="guilsinglleft" horiz-adv-x="343" unicode="‹" d="M151 395h124l-121 -145v-8l121 -144h-124l-99 122v52z"/>
<glyph glyph-name="guilsinglright" horiz-adv-x="343" unicode="›" d="M68 395h124l99 -123v-52l-99 -122h-124l121 144v8z"/>
<glyph glyph-name="fraction" horiz-adv-x="220" unicode="⁄" d="M253 653h88l-370 -653h-89z"/>
<glyph glyph-name="Euro" horiz-adv-x="784" unicode="€" d="M56 318v70h101q34 88 116.5 143.5t185.5 55.5q156 0 260 -91l-68 -77q-77 69 -192 69q-56 0 -104 -27.5t-76 -72.5h262v-70h-289q-2 -11 -2 -34q0 -21 2 -31h289v-70h-263q27 -47 75 -75t106 -28q56 0 109.5 20.5t90.5 56.5l68 -77q-114 -99 -268 -99q-104 0 -186.5 56.5 t-116.5 145.5h-100v70h84q-2 20 -2 31q0 23 2 34h-84z"/>
<glyph glyph-name="trademark" horiz-adv-x="864" unicode="™" d="M53 593v60h294v-60h-110v-267h-74v267h-110zM781 326h-74v196h-3l-95 -161h-9l-95 161h-3v-196h-70v327h74l101 -175h1l102 175h71v-327z"/>
<glyph glyph-name="arrowleft" horiz-adv-x="826" unicode="←" d="M580 304l153 2v-100l-153 3l-349 2l-44 1l-1 -4l56 -42l194 -194l-65 -68l-339 338v28l339 338l65 -68l-194 -193l-56 -42l1 -5l44 2z"/>
<glyph glyph-name="arrowup" horiz-adv-x="827" unicode="↑" d="M460 57l3 -152h-100l2 152l2 350l2 44l-4 2l-42 -57l-198 -198l-69 65l342 343h28l343 -343l-68 -65l-199 198l-42 57l-4 -2l2 -45z"/>
<glyph glyph-name="arrowright" horiz-adv-x="826" unicode="→" d="M93 306l153 -2l349 -2l44 -2l1 5l-56 42l-194 193l65 68l339 -338v-28l-339 -338l-65 68l194 194l56 42l-1 4l-44 -1l-349 -2l-153 -3v100z"/>
<glyph glyph-name="arrowdown" horiz-adv-x="827" unicode="↓" d="M463 606l-3 -152l-2 -349l-2 -45l4 -2l42 57l199 198l68 -65l-343 -343h-28l-342 343l69 65l198 -198l42 -57l4 2l-2 44l-2 350l-2 152h100z"/>
<glyph glyph-name="partialdiff" horiz-adv-x="651" unicode="∂" d="M306 63q70 0 120.5 50.5t58.5 148.5q-30 49 -79 82t-102 33q-60 0 -105 -42t-45 -116t44.5 -115t107.5 -41zM296 459q55 0 103 -22.5t78 -55.5v14q0 17 -7 37t-25.5 44t-46 43t-74 31.5t-104.5 12.5v91q368 0 368 -339q0 -166 -80 -250t-197 -84q-104 0 -181.5 62.5 t-77.5 175.5q0 58 22 105t58 75.5t78.5 44t85.5 15.5z"/>
<glyph glyph-name="product" horiz-adv-x="810" unicode="∏" d="M51 553v100h709v-100h-101v-660h-112v660h-285v-660h-112v660h-99z"/>
<glyph glyph-name="summation" horiz-adv-x="722" unicode="∑" d="M666 653v-100h-427l300 -246v-66l-300 -248h427v-100h-617v70l373 308v6l-373 306v70h617z"/>
<glyph glyph-name="minus" d="M90 213v92h576v-92h-576z" unicode="−"/>
<glyph glyph-name="radical" horiz-adv-x="674" unicode="√" d="M27 484h181l124 -330l219 600h102l-288 -754h-69l-160 402h-109v82z"/>
<glyph glyph-name="infinity" horiz-adv-x="1047" unicode="∞" d="M158 268v-18q0 -39 32 -68t80 -29h12q51 0 104 46l72 61l-72 61q-54 45 -104 45h-12q-48 0 -80 -29t-32 -69zM660 321l-75 -61l75 -61q56 -46 103 -46h12q48 0 80.5 29t32.5 68v18q0 40 -32.5 69t-80.5 29h-12q-48 0 -103 -45zM270 455h12q87 0 175 -74l66 -57l67 57 q90 74 173 74h12q89 0 149.5 -56t60.5 -131v-18q0 -74 -60.5 -129.5t-149.5 -55.5h-12q-83 0 -173 73l-67 54l-67 -55q-89 -72 -174 -72h-12q-88 0 -148 55.5t-60 129.5v18q0 75 60 131t148 56z"/>
<glyph glyph-name="approxequal" d="M90 324v93q79 55 156 55q63 0 129 -37q68 -39 125 -39q84 0 166 60v-95q-79 -58 -166 -58q-65 0 -128 37q-70 39 -127 39q-77 0 -155 -55zM90 79v93q80 56 156 56q63 0 129 -37q68 -39 125 -39q83 0 166 59v-95q-80 -57 -166 -57q-65 0 -128 37q-70 39 -127 39 q-78 0 -155 -56z" unicode="≈"/>
<glyph glyph-name="notequal" d="M90 335v93h334l64 101h101l-64 -101h141v-93h-199l-95 -151h294v-93h-353l-63 -101h-102l63 101h-121v93h180l95 151h-275z" unicode="≠"/>
<glyph glyph-name="lessequal" d="M666 586v-104l-446 -117v-12l446 -116v-104l-576 175v102zM90 0v93h576v-93h-576z" unicode="≤"/>
<glyph glyph-name="greaterequal" d="M90 482v104l576 -176v-102l-576 -175v104l446 116v12zM666 93v-93h-576v93h576z" unicode="≥"/>
<glyph glyph-name="lozenge" horiz-adv-x="669" unicode="◊" d="M334 539l-183 -211v-2l183 -212h1l183 211v3l-183 211h-1zM303 653h63l255 -293v-65l-255 -295h-63l-255 295v65z"/>
<glyph glyph-name="commaaccent" horiz-adv-x="500" unicode="" d="M215 -59l85 17q50 -43 50 -92q0 -51 -41.5 -82t-113.5 -31q-31 0 -56 7v63q15 -3 46 -3q68 0 68 52q0 33 -38 69z"/>
<glyph glyph-name="rupiah" horiz-adv-x="1312" unicode="" d="M427 469h-223v-160h239q42 0 72 24t30 56q0 26 -20 48q-29 32 -98 32zM204 0h-111v568h334q120 0 181 -63q48 -50 48 -115q0 -57 -36.5 -100.5t-95.5 -62.5l142 -227h-128l-128 211h-206v-211zM1019 75q57 0 95 45.5t38 119.5q0 75 -38.5 121.5t-94.5 46.5q-48 0 -84 -22 t-55 -46v-198q65 -67 139 -67zM768 484h95q7 -34 7 -68q20 30 63 56.5t96 26.5q100 0 168.5 -72t68.5 -187q0 -113 -69 -184t-168 -71q-83 0 -149 74v-266h-103v558q0 87 -9 133z"/>
</font>
</defs>
</svg>
