<svg version="1.1" id="Layer_1" xmlns="http://www.w3.org/2000/svg" xmlns:xlink="http://www.w3.org/1999/xlink" x="0px" y="0px"
	 viewBox="0 0 939 127.5" xml:space="preserve">
    <g>
        <path style="fill:#212121;" d="M341.8,95.8h6.7v16.3H359v5.3h-17.1V95.8z"/>
        <path style="fill:#212121;" d="M387.1,114.6h-7.6l-1.1,3.6h-6.8l8.1-21.6h7.3l8.1,21.6h-7L387.1,114.6z M385.7,109.9l-2.4-7.8
            l-2.4,7.8H385.7z"/>
        <path style="fill:#212121;" d="M420.7,109.6V105H431v9.2c-2,1.3-3.7,2.3-5.2,2.8c-1.5,0.5-3.3,0.7-5.4,0.7c-2.6,0-4.7-0.4-6.3-1.3
            c-1.6-0.9-2.9-2.2-3.8-3.9c-0.9-1.7-1.3-3.7-1.3-6c0-2.4,0.5-4.4,1.5-6.2s2.4-3.1,4.3-4c1.5-0.7,3.4-1,5.9-1c2.4,0,4.2,0.2,5.4,0.6
            c1.2,0.4,2.2,1.1,3,2s1.4,2.1,1.8,3.5l-6.5,1.2c-0.3-0.8-0.7-1.4-1.4-1.9c-0.6-0.4-1.4-0.6-2.4-0.6c-1.5,0-2.6,0.5-3.5,1.5
            c-0.9,1-1.3,2.6-1.3,4.8c0,2.3,0.4,4,1.3,5c0.9,1,2.1,1.5,3.7,1.5c0.7,0,1.5-0.1,2.1-0.3c0.7-0.2,1.5-0.6,2.3-1.1v-2H420.7z"/>
        <path style="fill:#212121;" d="M444.3,105.8c0-3.5,1-6.3,3-8.3c2-2,4.7-3,8.2-3c3.6,0,6.4,1,8.3,2.9s2.9,4.6,2.9,8.1
            c0,2.5-0.4,4.6-1.3,6.2c-0.9,1.6-2.1,2.9-3.7,3.8c-1.6,0.9-3.6,1.4-6,1.4c-2.4,0-4.5-0.4-6.1-1.2c-1.6-0.8-2.9-2-3.9-3.7
            S444.3,108.3,444.3,105.8z M450.9,105.8c0,2.2,0.4,3.8,1.2,4.7c0.8,1,1.9,1.4,3.3,1.4c1.4,0,2.5-0.5,3.3-1.4c0.8-0.9,1.2-2.6,1.2-5
            c0-2-0.4-3.5-1.2-4.5c-0.8-0.9-1.9-1.4-3.3-1.4c-1.3,0-2.4,0.5-3.2,1.4C451.4,102,450.9,103.6,450.9,105.8z"/>
        <path style="fill:#212121;" d="M479.2,111l6.4-0.4c0.1,1,0.4,1.8,0.8,2.4c0.7,0.9,1.7,1.3,3,1.3c1,0,1.7-0.2,2.2-0.7
            c0.5-0.4,0.8-1,0.8-1.6c0-0.6-0.2-1.1-0.7-1.5s-1.6-0.9-3.4-1.3c-2.9-0.7-5-1.5-6.3-2.6c-1.3-1.1-1.9-2.5-1.9-4.2
            c0-1.1,0.3-2.2,1-3.2c0.6-1,1.6-1.8,2.9-2.3c1.3-0.6,3.1-0.8,5.3-0.8c2.8,0,4.9,0.5,6.3,1.5s2.3,2.7,2.6,4.9l-6.3,0.4
            c-0.2-1-0.5-1.7-1.1-2.1c-0.5-0.4-1.3-0.7-2.2-0.7c-0.8,0-1.4,0.2-1.8,0.5s-0.6,0.7-0.6,1.2c0,0.3,0.2,0.7,0.5,0.9
            c0.3,0.3,1.1,0.6,2.2,0.8c2.9,0.6,5,1.3,6.3,1.9c1.3,0.6,2.2,1.4,2.8,2.4c0.6,1,0.9,2,0.9,3.2c0,1.4-0.4,2.7-1.2,3.8
            s-1.8,2.1-3.2,2.7c-1.4,0.6-3.1,0.9-5.2,0.9c-3.7,0-6.2-0.7-7.6-2.1S479.4,113.2,479.2,111z"/>
    </g>
    <g>
        <path style="fill:#212121;" d="M0.7,8.6H13v13.9h13.5V8.6h12.4v39.9H26.5V32.3H13v16.1H0.7V8.6z"/>
        <path style="fill:#212121;" d="M109.4,41.8h-14l-1.9,6.6H80.9l15-39.9h13.4l15,39.9h-12.9L109.4,41.8z M106.8,33.2l-4.4-14.3
            l-4.4,14.3H106.8z"/>
        <path style="fill:#212121;" d="M166.1,8.6h12.3v30h19.2v9.8h-31.5V8.6z"/>
        <path style="fill:#212121;" d="M241.1,8.6h12.3v30h19.2v9.8h-31.5V8.6z"/>
        <path style="fill:#212121;" d="M316,8.6h33v8.5h-20.7v6.3h19.2v8.1h-19.2v7.9h21.3v9H316V8.6z"/>
        <path style="fill:#212121;" d="M410.4,9.4h16.2l6.2,24.3l6.2-24.3h16.2v39.9h-10.1V18.8l-7.8,30.4h-9.1l-7.8-30.4v30.4h-10.1V9.4z"
            />
        <path style="fill:#212121;" d="M522.9,37.9l10.5,1.2c-0.6,2.2-1.5,4.1-2.9,5.7c-1.3,1.6-3,2.9-5.1,3.7c-2.1,0.9-4.7,1.3-7.8,1.3
            c-3.1,0-5.6-0.3-7.7-0.9c-2-0.6-3.8-1.5-5.3-2.8c-1.5-1.3-2.6-2.8-3.5-4.5c-0.8-1.7-1.3-4-1.3-6.8c0-3,0.5-5.4,1.5-7.4
            c0.7-1.4,1.8-2.7,3-3.9s2.6-2,4-2.6c2.2-0.9,4.9-1.3,8.3-1.3c4.7,0,8.3,0.8,10.8,2.5c2.5,1.7,4.2,4.2,5.2,7.4L522.4,31
            c-0.3-1.2-0.9-2.2-1.8-2.8c-0.9-0.6-2-0.9-3.5-0.9c-1.8,0-3.3,0.7-4.4,2c-1.1,1.3-1.7,3.3-1.7,6c0,2.4,0.6,4.2,1.7,5.4
            c1.1,1.2,2.6,1.8,4.3,1.8c1.5,0,2.7-0.4,3.7-1.1C521.7,40.6,522.4,39.5,522.9,37.9z"/>
        <path style="fill:#212121;" d="M596.7,34.8v-8.3h19v17c-3.6,2.5-6.9,4.2-9.7,5.1c-2.8,0.9-6.1,1.3-10,1.3c-4.7,0-8.6-0.8-11.6-2.4
            c-3-1.6-5.3-4-6.9-7.2s-2.5-6.9-2.5-11c0-4.4,0.9-8.1,2.7-11.4c1.8-3.2,4.4-5.7,7.9-7.3c2.7-1.3,6.3-1.9,10.9-1.9
            c4.4,0,7.7,0.4,9.9,1.2c2.2,0.8,4,2,5.4,3.7c1.4,1.7,2.5,3.8,3.2,6.4l-11.9,2.1c-0.5-1.5-1.3-2.7-2.5-3.5c-1.2-0.8-2.7-1.2-4.5-1.2
            c-2.7,0-4.9,0.9-6.5,2.8c-1.6,1.9-2.4,4.8-2.4,8.9c0,4.3,0.8,7.4,2.4,9.2c1.6,1.8,3.9,2.8,6.8,2.8c1.4,0,2.7-0.2,3.9-0.6
            c1.3-0.4,2.7-1.1,4.3-2v-3.8H596.7z"/>
        <path style="fill:#212121;" d="M662.2,49.2V9.4h20.5c3.8,0,6.7,0.3,8.7,1c2,0.7,3.6,1.9,4.9,3.6c1.2,1.8,1.8,3.9,1.8,6.5
            c0,2.2-0.5,4.1-1.4,5.7c-0.9,1.6-2.2,2.9-3.9,3.9c-1.1,0.6-2.5,1.2-4.3,1.6c1.5,0.5,2.5,1,3.2,1.5c0.5,0.3,1.1,1,2,2.1
            c0.9,1.1,1.4,1.9,1.7,2.5l6,11.6h-13.9l-6.6-12.2c-0.8-1.6-1.6-2.6-2.2-3.1c-0.9-0.6-1.9-0.9-3-0.9h-1.1v16.2H662.2z M674.5,25.5
            h5.2c0.6,0,1.6-0.2,3.3-0.5c0.8-0.2,1.5-0.6,2-1.3c0.5-0.7,0.8-1.4,0.8-2.3c0-1.3-0.4-2.3-1.2-3c-0.8-0.7-2.3-1-4.6-1h-5.4V25.5z"
            />
        <path style="fill:#212121;" d="M744.3,9.4h33v8.5h-20.7v6.3h19.2v8.1h-19.2v7.9h21.3v9h-33.6V9.4z"/>
        <path style="fill:#212121;" d="M823.5,9.4h33v8.5h-20.7v6.3H855v8.1h-19.2v7.9h21.3v9h-33.6V9.4z"/>
        <path style="fill:#212121;" d="M899.7,9.4h11.5l15,22.1V9.4h11.6v39.9h-11.6l-14.9-21.9v21.9h-11.6V9.4z"/>
    </g>
</svg>
