<svg xmlns="http://www.w3.org/2000/svg" viewBox="0 0 209.3 64">
  <path d="M189.7 59h-170c-8.3 0-15-6.8-15-15V19c0-8.3 6.8-15 15-15h170c8.3 0 15 6.8 15 15v25c0 8.3-6.8 15-15 15z" fill="#FFF"/>
  <path d="M16.8 31.5V17.9c0-3.7 2.9-5.5 6.1-3.6 7.8 4.5 15.6 9 23.4 13.7 3.4 2 3.2 5.4-.3 7.4-6 3.5-11.9 7-17.9 10.4-1.6.9-3.2 1.9-4.8 2.8-.7.4-1.5.8-2.4.9-2.4.3-4.2-1.4-4.2-4.1.1-4.7.1-9.3.1-13.9zm1.9-.1v13.4c0 1 .1 2 1.1 2.6 1.1.6 2-.1 2.8-.6.2-.2.4-.4.6-.7 3.8-4.7 7.5-9.4 11.3-14.1.3-.4.4-.7 0-1.1L23.1 16.8c-.8-1.1-2.3-1.7-3.2-1.3-1.3.5-1.3 1.7-1.3 2.9.1 4.3.1 8.7.1 13zm28.2.2c-.1-.9-.6-1.5-1.3-1.9-1.3-.8-2.7-1.6-4-2.4-.4-.2-.6-.2-.8.1-1 1.3-2 2.5-3 3.7-.2.3-.2.5 0 .8 1 1.2 2 2.5 3 3.7.2.3.4.4.8.2 1.4-.9 2.9-1.7 4.3-2.6.5-.4.9-.9 1-1.6zm-19.1-12c2.7 3.3 5.3 6.5 7.9 9.8.4.5.6.6 1 0 .7-1 1.5-1.9 2.3-2.9.4-.5.3-.6-.2-.9-3.3-1.9-6.7-3.9-10-5.8-.3-.1-.5-.4-1-.2zm-.1 23.9c.3 0 .5 0 .6-.1 3.6-2.1 7.1-4.1 10.7-6.2.4-.2.3-.4.1-.6-1-1.2-1.9-2.4-2.9-3.6-2.8 3.5-5.6 7-8.5 10.5z" fill="#E76024"/>
  <path d="M68.3 21.7c-.3.4-.8.7-1.4.9-.6.2-1.3.3-2.1.3s-1.6-.2-2.2-.5-1.1-.8-1.5-1.4-.5-1.3-.5-2.1v-.7c0-1.3.4-2.3 1.1-3s1.7-1.1 3-1.1c1.1 0 1.9.2 2.5.7s1 1.1 1.2 1.9H67c-.2-1.1-1-1.7-2.4-1.7-.9 0-1.6.3-2 .8-.5.5-.7 1.3-.7 2.3v.7c0 1 .3 1.7.8 2.3.5.6 1.2.8 2.1.8.5 0 .9 0 1.3-.1s.7-.3.9-.5v-1.9h-2.3v-.9h3.7v3.2zm7.9-2.8h-4.4v3h5.1v.9h-6.4v-8.5h6.3v.9h-5V18h4.4v.9zm9.5-3.7h-3.2v7.6h-1.3v-7.6H78v-.9h7.8v.9zm6.1 7.7h-1.3v-8.5h1.3v8.5zm9.2-7.7h-3.2v7.6h-1.3v-7.6h-3.2v-.9h7.8v.9zm12.5 3.7c0 .8-.2 1.6-.5 2.2-.3.6-.8 1.1-1.4 1.4s-1.3.5-2.1.5-1.5-.2-2.1-.5c-.6-.3-1.1-.8-1.4-1.4s-.5-1.3-.5-2.1v-.6c0-.8.2-1.5.5-2.2.3-.6.8-1.1 1.4-1.4s1.3-.5 2.1-.5 1.5.2 2.1.5 1.1.8 1.4 1.4c.3.6.5 1.4.5 2.2v.5zm-1.3-.6c0-1-.2-1.8-.7-2.3-.5-.5-1.2-.8-2-.8s-1.5.3-2 .8-.7 1.3-.7 2.3v.6c0 1 .2 1.8.7 2.3.5.6 1.2.8 2 .8.9 0 1.5-.3 2-.8s.7-1.3.7-2.3v-.6zm11 4.6h-1.3l-5.1-6.6v6.6h-1.3v-8.5h1.3l5.1 6.6v-6.6h1.3v8.5zm-48 21.2c-.2.2-.5.4-.9.7-.3.2-.8.5-1.3.7-.5.2-1.2.4-1.9.5-.7.1-1.6.2-2.6.2-1.1 0-2.2-.2-3.1-.5-.9-.3-1.7-.8-2.4-1.4s-1.2-1.4-1.6-2.3-.6-1.9-.6-3.1V38c0-1.2.2-2.2.5-3.1.4-.9.8-1.7 1.5-2.3.6-.6 1.4-1.1 2.3-1.4.9-.3 1.9-.5 3-.5s2.1.1 3 .4c.8.2 1.5.6 2.1 1s1 1 1.3 1.6c.3.6.5 1.3.6 2h-3.5c-.1-.4-.2-.7-.3-1-.2-.3-.4-.6-.6-.8-.3-.2-.6-.4-1-.5-.4-.1-.9-.2-1.4-.2-1.2 0-2.2.4-2.8 1.2-.6.8-1 2-1 3.5V39c0 1.6.4 2.7 1.1 3.5.7.8 1.7 1.2 3.1 1.2.4 0 .8 0 1.1-.1s.6-.1.8-.2c.2-.1.4-.2.6-.2.2-.1.3-.2.4-.3v-2.6h-3.3V38h6.9v6.1zm2.2-3.7c0-.8.1-1.6.4-2.2.3-.7.7-1.3 1.2-1.8s1.2-.9 1.9-1.2 1.6-.4 2.6-.4 1.9.1 2.7.4c.8.3 1.4.7 2 1.2.5.5.9 1.1 1.2 1.8.3.7.4 1.4.4 2.2v.2c0 .8-.1 1.6-.4 2.3-.3.7-.7 1.3-1.2 1.8s-1.2.9-1.9 1.2c-.8.3-1.6.4-2.6.4s-1.9-.1-2.6-.4c-.8-.3-1.4-.7-2-1.2-.5-.5-.9-1.1-1.2-1.8-.3-.7-.4-1.4-.4-2.3v-.2zm3.5.2c0 .5 0 .9.1 1.3s.3.7.5 1c.2.3.5.5.8.7s.8.3 1.3.3.9-.1 1.2-.3c.3-.2.6-.4.8-.7.2-.3.4-.6.5-1 .1-.4.1-.8.1-1.3v-.2c0-.4 0-.9-.1-1.2-.1-.4-.3-.7-.5-1-.2-.3-.5-.5-.8-.7-.3-.2-.8-.3-1.3-.3s-.9.1-1.2.3c-.3.2-.6.4-.8.7-.2.3-.4.6-.5 1-.1.4-.1.8-.1 1.2v.2zm10.5-.2c0-.8.1-1.6.4-2.2.3-.7.7-1.3 1.2-1.8s1.2-.9 1.9-1.2 1.6-.4 2.6-.4 1.9.1 2.7.4c.8.3 1.4.7 2 1.2.5.5.9 1.1 1.2 1.8.3.7.4 1.4.4 2.2v.2c0 .8-.1 1.6-.4 2.3-.3.7-.7 1.3-1.2 1.8s-1.2.9-1.9 1.2c-.8.3-1.6.4-2.6.4s-1.9-.1-2.6-.4c-.8-.3-1.4-.7-2-1.2-.5-.5-.9-1.1-1.2-1.8-.3-.7-.4-1.4-.4-2.3v-.2zm3.5.2c0 .5 0 .9.1 1.3s.3.7.5 1c.2.3.5.5.8.7s.8.3 1.3.3.9-.1 1.2-.3c.3-.2.6-.4.8-.7.2-.3.4-.6.5-1 .1-.4.1-.8.1-1.3v-.2c0-.4 0-.9-.1-1.2-.1-.4-.3-.7-.5-1-.2-.3-.5-.5-.8-.7-.3-.2-.8-.3-1.3-.3s-.9.1-1.2.3c-.3.2-.6.4-.8.7-.2.3-.4.6-.5 1-.1.4-.1.8-.1 1.2v.2zm10.6-.2c0-.8.1-1.6.4-2.3.2-.7.6-1.3 1.1-1.8.5-.5 1-.9 1.7-1.2s1.4-.4 2.2-.4c.8 0 1.4.1 2 .3s1 .5 1.4.9l.1-1h3.2v10.7c0 .8-.2 1.4-.5 2-.3.6-.7 1.1-1.3 1.5-.6.4-1.2.7-2 .9-.8.2-1.6.3-2.6.3-.4 0-.8 0-1.3-.1s-.9-.2-1.3-.3c-.4-.1-.9-.3-1.3-.5s-.7-.5-1-.8l1.6-1.8c.4.4.9.7 1.4.9.5.2 1.1.3 1.8.3.9 0 1.7-.2 2.2-.6.5-.4.8-1 .8-1.8V45c-.4.4-.8.7-1.4.9-.5.2-1.1.3-1.8.3-.8 0-1.5-.1-2.2-.4-.7-.3-1.2-.7-1.7-1.2s-.8-1.1-1.1-1.8c-.2-.7-.4-1.4-.4-2.2v-.2zm3.5.2c0 .5.1.9.2 1.3s.3.7.5 1c.2.3.5.5.8.7.3.2.7.3 1.2.3.6 0 1-.1 1.4-.3.4-.2.7-.4.9-.7v-4.7c-.2-.3-.5-.6-.9-.8-.4-.2-.8-.3-1.4-.3-.5 0-.9.1-1.2.3-.3.2-.6.4-.8.7-.2.3-.4.6-.5 1s-.2.8-.2 1.3v.2zm14.8 5.4h-3.5V30.3h3.5V46zm9 .2c-1 0-1.9-.1-2.7-.4-.8-.3-1.5-.7-2-1.1s-1-1.1-1.3-1.7c-.3-.7-.4-1.4-.4-2.1v-.4c0-.8.1-1.6.4-2.3.3-.7.7-1.3 1.2-1.8s1.2-.9 1.9-1.2c.8-.3 1.6-.4 2.5-.4.9 0 1.8.1 2.5.4.7.3 1.3.6 1.8 1.1.5.5.9 1 1.1 1.7s.4 1.4.4 2.2v1.3h-8.3c.1.4.2.7.3 1 .2.3.4.5.7.8.3.2.6.4 1 .5s.8.2 1.2.2c.6 0 1.2-.1 1.8-.3.5-.2 1-.5 1.4-.9l1.7 1.6c-.2.3-.5.5-.8.7-.3.2-.7.5-1.1.6-.4.2-.9.3-1.4.5h-1.9zm-.4-9.1c-.4 0-.7.1-1 .2-.3.1-.5.3-.7.5-.2.2-.4.4-.5.7l-.3.9h4.9v-.2c0-.3-.1-.6-.2-.8-.1-.3-.2-.5-.4-.7-.2-.2-.4-.3-.7-.4-.4-.1-.7-.2-1.1-.2zm17.8 3.7V46h-3.6V31.1h6.9c1 0 2 .1 2.8.4.8.2 1.5.6 2.1 1 .6.4 1 1 1.3 1.6.3.6.4 1.3.4 2s-.1 1.4-.4 2c-.3.6-.7 1.1-1.3 1.5s-1.3.7-2.1.9c-.8.2-1.8.3-2.8.3h-3.3zm0-2.5h3.2c.5 0 1-.1 1.3-.2.4-.1.7-.3.9-.5.2-.2.4-.4.5-.7s.2-.6.2-.9-.1-.6-.2-.9c-.1-.3-.3-.6-.5-.8-.2-.2-.5-.4-.9-.5-.4-.1-.8-.2-1.3-.2h-3.2v4.7zM166 46h-3.5V30.3h3.5V46zm10.5 0c-.2-.3-.3-.6-.4-1-.4.3-.8.6-1.3.9s-1.2.3-2 .3c-.6 0-1.2-.1-1.8-.2-.5-.2-1-.4-1.4-.7-.4-.3-.7-.6-.9-1.1-.2-.4-.3-.9-.3-1.3 0-.6.1-1.1.4-1.5s.6-.8 1.1-1.1c.5-.3 1.1-.6 1.9-.7.8-.2 1.6-.2 2.6-.2h1.6v-.6c0-.5-.2-.9-.5-1.2-.3-.3-.8-.5-1.5-.5-.6 0-1.1.1-1.4.4s-.5.6-.5 1h-3.5c0-.5.1-.9.4-1.4s.6-.8 1.1-1.1 1.1-.6 1.8-.8c.7-.2 1.5-.3 2.3-.3.8 0 1.5.1 2.1.2s1.2.4 1.7.7c.5.3.8.7 1.1 1.2.3.5.4 1.1.4 1.7v5.5c0 .2.1.5.1.7 0 .2.1.4.2.5.1.2.1.3.2.5v.1h-3.5zm-2.9-2c.3 0 .6 0 .8-.1.3-.1.5-.1.7-.2.2-.1.4-.2.5-.3l.4-.4v-2h-1.4c-.5 0-.9 0-1.2.1-.3.1-.6.2-.8.4-.2.2-.4.3-.5.5-.1.2-.2.4-.2.7 0 .4.2.7.5.9.3.2.7.4 1.2.4zm13.3-2.2l2.4-6.9h3.8l-5.2 12.8c-.1.3-.3.6-.5.9s-.4.6-.8.9c-.3.3-.7.5-1.2.7-.5.2-1.1.3-1.8.3h-.8s-.2 0-.4-.1c-.1 0-.2-.1-.4-.1v-2.2h.6c.3 0 .6 0 .9-.1.2 0 .5-.1.6-.2.2-.1.3-.2.4-.4s.2-.3.3-.5l.4-.8-4.6-11.1h3.8l2.5 6.8z" fill="#353535"/>
</svg>
